<?xml version="1.0" encoding="UTF-8"?>
<svg xmlns="http://www.w3.org/2000/svg" viewBox="0 0 2001 410.71">
  <defs>
    <style>
      .cls-1, .cls-2 {
        mix-blend-mode: difference;
      }

      .cls-2, .cls-3, .cls-4 {
        fill: #fff;
      }

      .cls-2, .cls-4 {
        stroke-width: 0px;
      }

      .cls-3, .cls-5 {
        stroke: #fff;
        stroke-miterlimit: 10;
      }

      .cls-5 {
        fill: none;
      }

      .cls-6 {
        isolation: isolate;
      }
    </style>
  </defs>
  <g class="cls-6">
    <g id="Layer_2" data-name="Layer 2">
      <g id="Layer_1-2" data-name="Layer 1">
        <g>
          <g>
            <polygon class="cls-4" points="1090.26 128.97 1096.08 128.97 1111.88 128.97 1111.88 162.18 1090.26 162.18 1090.26 128.97"/>
            <polygon class="cls-4" points="1065.13 83.77 1061.35 83.77 1057.57 83.77 1056.88 83.37 1056.75 79.46 1056.74 78.98 1056.72 78.25 1056.6 74.44 1064.05 76.59 1065.13 83.77"/>
            <polygon class="cls-4" points="1061.35 83.77 1065.13 83.77 1070.96 87.35 1085.31 99.55 1097.52 110.31 1118.33 128.97 1116.18 128.97 1111.88 128.97 1096.08 128.97 1086.75 119.64 1077.42 111.75 1065.93 102.42 1058.04 95.25 1047.27 85.92 1035.79 76.59 1050.14 79.46 1056.88 83.37 1057.57 83.77 1061.35 83.77"/>
            <path class="cls-4" d="m1056.6,74.44l.11,3.81c0-.14,0-.03.02.72v.49s.14,3.9.14,3.9l-6.73-3.9-.06-2.38-.08-2.64h6.6Z"/>
            <path class="cls-4" d="m1062.16,118.43v-13.86h-9.19v13.86h9.19Zm-27.81-25.34h3.76l-.17-5.74-3.88-.26.29,6Zm-.29,57.62v-17.45h-9.75v17.45h9.75Zm42.42,0v-17.45h-8.39v17.45h8.39Zm-55.76-32.51v-13.63h-8.61v13.86l8.61-.23Zm-22.87,32.51v-17.45h-8.91v17.45h8.91Zm8.85-60.85l.02,2.87v11.51l5.02-5.78,5.02-4.3,6.46-5.74,5.15-4.66,7.41-7.17,11.48,9.33,10.77,9.33,7.9,7.17,11.48,9.33,9.33,7.89,9.33,9.33h-5.82v33.22h-113.48v-22.94h-11.89v22.94h-6.52v-22.94l8.17-4.9,7.9-5.02,8.61-5.74,7.18-5.74,7.18-5.74,2.87-2.15v-19.07l2.15-1.02h4.28Z"/>
          </g>
          <g>
            <line class="cls-5" x1="1050.14" y1="79.46" x2="1035.79" y2="76.59"/>
            <polyline class="cls-5" points="1065.13 83.77 1061.35 83.77 1057.57 83.77 1056.88 83.37 1050.14 79.46 1050.08 77.08 1050 74.44 1056.6 74.44 1064.05 76.59 1065.13 83.77 1070.96 87.35 1085.31 99.55 1097.52 110.31 1118.33 128.97 1116.18 128.97 1111.88 128.97 1096.08 128.97 1086.75 119.64 1077.42 111.75 1065.93 102.42 1058.04 95.25 1047.27 85.92 1035.79 76.59 1028.38 83.77 1023.23 88.43 1016.77 94.17 1011.75 98.47 1006.72 104.25 1006.72 102.02 1006.72 100.2 1006.72 97.56 1006.72 94.93 1006.72 92.74 1006.7 89.87 1004.47 89.87 1002.41 89.87 1000.26 90.88 1000.26 93.31 1000.26 96.15 1000.26 99.59 1000.26 104.05 1000.26 109.95 997.39 112.11 990.21 117.85 983.04 123.59 974.42 129.32 966.53 134.35 958.36 139.25 955.76 140.8"/>
            <line class="cls-5" x1="1056.74" y1="78.98" x2="1056.72" y2="78.25"/>
            <line class="cls-5" x1="1056.91" y1="84.48" x2="1056.88" y2="83.37"/>
            <line class="cls-5" x1="1056.88" y1="83.37" x2="1056.75" y2="79.46"/>
            <line class="cls-5" x1="1056.72" y1="78.25" x2="1056.6" y2="74.44"/>
            <path class="cls-5" d="m1056.72,78.25c0-.14,0-.03.02.72"/>
            <line class="cls-5" x1="1056.75" y1="79.46" x2="1056.74" y2="78.98"/>
            <polyline class="cls-5" points="1096.08 128.97 1090.26 128.97 1090.26 162.18 1111.88 162.18 1111.88 128.97"/>
            <polyline class="cls-5" points="958.36 139.25 958.36 162.18 964.88 162.18 976.78 162.18 1090.26 162.18"/>
            <polygon class="cls-5" points="1012.1 104.57 1012.1 118.43 1020.72 118.2 1020.72 104.57 1012.1 104.57"/>
            <rect class="cls-5" x="1052.97" y="104.57" width="9.19" height="13.86"/>
            <rect class="cls-5" x="1068.09" y="133.27" width="8.39" height="17.45"/>
            <rect class="cls-5" x="1024.31" y="133.27" width="9.75" height="17.45"/>
            <rect class="cls-5" x="988.94" y="133.27" width="8.91" height="17.45"/>
            <polyline class="cls-5" points="964.88 162.18 964.88 139.25 976.78 139.25 976.78 162.18"/>
            <polygon class="cls-5" points="1034.06 87.1 1034.35 93.09 1038.12 93.09 1037.94 87.35 1034.06 87.1"/>
          </g>
        </g>
        <g>
          <g>
            <polygon class="cls-4" points="796.65 84.17 788.69 76.58 796.46 76.15 804.23 84.17 796.65 84.17"/>
            <polygon class="cls-4" points="784.8 83.08 777.29 83.08 767.73 73.84 776.27 73.84 784.8 83.08"/>
            <polygon class="cls-4" points="804.23 66.27 722.37 57.56 720.9 54.57 689.92 31.17 691.73 28.57 692.77 9.48 704.96 9.48 702.88 14.06 702.88 31.17 760.84 38.05 761.47 22.22 770.48 22.22 769.11 25.66 769.25 38.74 773.24 38.74 804.23 66.27"/>
            <path class="cls-4" d="m746.38,76.58c0-4.8,7.57,16.53,7.57,16.53l9.34,1.27,1.8-13-8.04-9.61h-10.67v4.8Zm42.31,3.58l7.77,14.23,3.88,1.14h3.88v-11.36l-7.77-8.02-7.77.43v3.58Zm30.59,22.59l1.04,57.13h-78.76l1.57-59.88-20.76-42.43,81.86,8.71,19.97,36.48s-1.82-.06-4.91-.17v.17Zm-34.48-7.23v-12.44l-8.53-9.24h-8.54v4.62l8.54,17.06h8.53Zm26.31,44.4v-18.85h-8.68v18.66l8.68.19Zm-21.13.85v-19.69h-7.51l-1.53,19.69h9.04Zm-24.89,0l-.12-19.43-7.92-.26-1.32,19.69h9.36Z"/>
            <polygon class="cls-4" points="765.1 81.39 746.38 71.78 757.06 71.78 765.1 81.39"/>
            <polygon class="cls-4" points="757.06 81.39 746.38 71.78 765.1 81.39 757.06 81.39"/>
            <path class="cls-4" d="m643.78,155.06v-62.88l14.46-32.8,31.68-28.22,30.99,23.4,1.47,2.99,20.76,42.43-1.57,59.88h-97.78v-4.82Zm78.59-59.54v-15.36h-7.56v15.36h7.56Zm-54.49-1.03v-16.03h-7.77v15.93l7.77.1Zm45.37,43.69h9.12v-17.62l-9.12-2.33v19.95Zm-53.15-1.56h7.77v-17.36l-7.77-1.04v18.4Zm19.45-74.7v-10.1h-6.16v10.1h6.16Zm26.18,0v-10.1h-5.19v10.1h5.19Z"/>
          </g>
          <g>
            <polyline class="cls-5" points="640.34 100 643.78 92.19 658.24 59.39 689.92 31.17 720.9 54.57 722.37 57.56 743.13 100 741.56 159.88 643.78 159.88 643.78 155.06 643.78 101.49 643.78 97.89 643.78 92.19"/>
            <path class="cls-5" d="m750.52,99.31c-6.44.59,51.31,2.66,68.77,3.28,3.08.1,4.91.17,4.91.17l-19.97-36.48-30.99-27.53h-3.99l-.14-13.08,1.38-3.44h-9.01l-.63,15.83-57.96-6.88V14.06l2.07-4.57h-12.18l-1.04,19.08-1.82,2.6"/>
            <line class="cls-5" x1="722.37" y1="57.56" x2="804.23" y2="66.27"/>
            <polygon class="cls-5" points="746.38 71.78 757.06 81.39 765.1 81.39 757.06 71.78 746.38 71.78"/>
            <path class="cls-5" d="m746.38,71.78v4.8c0-4.8,7.57,16.53,7.57,16.53l9.34,1.27,1.8-13-18.72-9.61Z"/>
            <polyline class="cls-5" points="784.8 83.08 776.27 73.84 767.73 73.84 777.29 83.08"/>
            <polygon class="cls-5" points="776.27 95.52 777.29 83.08 784.8 83.08 784.8 95.52 776.27 95.52"/>
            <line class="cls-5" x1="776.27" y1="95.52" x2="767.73" y2="78.46"/>
            <line class="cls-5" x1="767.73" y1="73.84" x2="767.73" y2="78.46"/>
            <polyline class="cls-5" points="804.23 84.17 796.46 76.15 788.69 76.58 796.65 84.17"/>
            <polygon class="cls-5" points="796.46 94.39 796.65 84.17 804.23 84.17 804.23 95.52 800.34 95.52 796.46 94.39"/>
            <polyline class="cls-5" points="788.69 76.58 788.69 80.16 796.46 94.39"/>
            <polyline class="cls-5" points="741.56 159.88 820.32 159.88 819.28 102.75"/>
            <polygon class="cls-5" points="660.11 78.46 660.11 94.39 667.88 94.49 667.88 78.46 660.11 78.46"/>
            <rect class="cls-5" x="673.39" y="51.82" width="6.16" height="10.1"/>
            <rect class="cls-5" x="700.55" y="51.82" width="5.19" height="10.1"/>
            <rect class="cls-5" x="714.81" y="80.16" width="7.56" height="15.36"/>
            <polygon class="cls-5" points="660.11 118.23 660.11 136.62 667.88 136.62 667.88 119.26 660.11 118.23"/>
            <polygon class="cls-5" points="713.25 118.23 713.25 138.18 722.37 138.18 722.37 120.56 713.25 118.23"/>
            <polygon class="cls-5" points="757.06 121.08 755.74 140.77 765.1 140.77 764.98 121.34 757.06 121.08"/>
            <polygon class="cls-5" points="782.47 121.08 780.94 140.77 789.99 140.77 789.99 121.08 782.47 121.08"/>
            <polygon class="cls-5" points="802.43 121.08 802.43 139.74 811.11 139.92 811.11 121.08 802.43 121.08"/>
          </g>
        </g>
        <polygon class="cls-3" points="1930.52 160.38 609.9 160.38 563.28 150.71 500.05 141.99 424.4 127.43 367.94 111.5 336.32 95.52 319.39 93.09 291.16 93.09 242.61 95.52 207.6 95.52 183.89 102.75 143.46 95.92 122.47 95.92 103.72 81.39 90.17 73.84 72.11 66.27 47.27 61.92 13.39 61.92 .5 61.92 .5 410.21 1930.52 410.21 2000.5 410.21 2000.5 160.38 1930.52 160.38"/>
        <g class="cls-1">
          <path class="cls-3" d="m1121.04,101.97l-1.71,1.22-.25.09-1.71.64-2.45.24-2.2-.24v-.24l.73-.49,1.47-1.22,1.22-.49,1.71-.98,1.47-.49,1.22-1.71-1.71,1.47-2.2.73-3.18,1.71-1.71,1.22-1.22,1.22-1.47.49-1.47.24h-1.96l-2.45-.49-.73-.24-.24-.49-.47-.09.23-1.13v-4.4l.24-.73.24-.73.49-.98.49-.98v-1.47l.49-1.47v-.73l-.49.24-.73,3.18-.73,1.96-.49,1.22v4.89l-.3,1.02-.18-.04h-.98l-.73.49h-1.47l-.24-.49v-9.29l.49-1.47,1.22-1.96,1.47-1.71,1-1.43.96-1.26,1.71-1.47,1.22-.98.24-.49v-.98l-.24-.98-.24.73v.98l-.49.73-.49.24-.98.98-.98.73-.73.49-.49.98h-.73l-.98,1.22-.98,1.71-1.22,1.22v-6.11l.49-3.67.24-.73.49-1.22v-2.2l.24-1.22.24-.49v-.73l.08-.82.16.33.98.73.73.24h.49l1.22-.24,1.71-.49h.98l1.22-.24,1.22.24-.24.49-.73.49-.49.73-.73,1.47-.98,1.47-.98,1.22v1.71l.24.98v-1.71l.98-1.47,1.22-1.71,1.47-2.45.73-.98.73.24,1.22.49.98.73.98.73.98.73.49.73h.73l.73.24.49-.49.24-2.2v-6.36l.24-.73,1.22-.98.98-.98.24-.73.49-1.22.24-1.47.49-1.71.49-1.22v-1.71l-.49,1.22-.24,1.22-.73,1.96-.49,1.96-.98,1.71-.98.98-.49.24.24-1.71-.24-.98v-2.69l.24-1.47v-3.18l-.49-2.69v4.76l-.24,1.84-.24,1.96.49,2.45-.73-1.47-.73-1.22-.22-.54.47-1.17v-1.22l.24-.98v-1.47l-.49-1.9v3.62l-.24,1.22-.42.84-.56-1.33-.24-.98-.54-.89.05-.33.24-.98.24-.73.73-2.69-.72,1.67-.02.04-.73,1.22-.19,1.15-.54-.9v-.49l-.73-1.22-.49-.73-.49-.98-.24-.73-.24-.98-.24-1.71v2.93l.49.73.73,1.71,1.22,2.2.42.98-.17,1.22-.24,1.22-.73,1.47-.73,1.47-.76,1.32-.05.09-.17.3-.24.49-1.47,1.22-.24,1.22-.24,1.71-.73.24-.73.49-.49,1.22-.24.98h-.49l-.24-.24-.24-.98v-.98l-.24-.98-.24-.49.73-1.22.49-1.22.49-.49.73-.73h-.49l-.49.49-.98.98-.37.94-.12-.21-.49-.73-.49-.98v-1.71l.73-1.22.49-.73.49-1.71.24-.98.24-1.47.49-1.47-.24-.49-.92-.37-1.04.12.98.49.49.49-.24,1.22-.24,1.22-.49,1.47-.49,1.47-.49.73-.49,1.22-.24-.98-.24-.73-.24-1.47-.24-1.22v-1.96l.24-.98.24-.73.98-.98.98-1.22.49-.49.49-.73v-1.96l.73-.73.73-.73.24-.73v-5.87l-.24.73-.24,1.71v2.69l-.73,1.47-.73.98-.49.49-.49-1.22-.24-.73-.98-2.2.24,1.71.49,1.47.86,1.63.61.82-1.22,1.22-.73.98-1.22,1.22-.49,1.22-.24,2.2.49,2.69.73,1.96.49,2.2-.49-.98-1.22-1.71-.73-.98-.73-.73-.49-.98-.49-1.47-.73-1.47.24,1.96.73,1.71.73,1.22,1.71,1.47.98,2.45.73,1.22.49,1.47.49.98.37,1.67.12,1.26-1.47.24-.98-.24-1.52-1.14.06-.57v-.73l-.24-1.96-.24,1.47v.98l-.04.49h-4.11l-.49-1.47-.24-1.22-.49-1.71v-7.34l.24-1.71.24-.73.49-.49.49-.73v-1.22l.73-.98.98-.24.73-.49.49-.98.49-1.22.49-.98.49-1.22.24-1.71.24-.98.24-.49.73-.73.73-.73.98-.98,1.47-.98.98-.49h.49l1.96-1.96-2.45,1.47-1.84.75-1.59,1.21-.98.98-.49.98-.49.24-.24.73v1.22l-.24.98-.98,1.71-.24,1.22-.49.98-.49.49-.73.49h-.73l-.49.98-.73,1.22-.49-.24v-1.47l.24-1.96.73-1.96,1.71-2.69.73-1.47.98-1.22v-1.71l.49-.49v-3.18l-.24-1.47v3.18l-.49,1.22v-.98l-.24-.98v-.73l-.49-.73-.89-2.08.02-.22.63-.39h.73l1.22-.49.49-.24-.24-.24-.49-.49v-.98h.49l1.22-.73-1.96.56v1.88h-.73l-1.22.49-.08.06.08-.79.24-.49.24-.73.49-1.71.24-.98.24-.49.73-1.22.73-.24.49-.73h-.49l-.49.24-.73.49-.49.98-.2.66-.29.56h-.49v-.73l.24-.98-.49-1.47v3.42l.24.49v.73l-.13.44-.36,1.27-.24.73-.06.44-.19-.44v-1.48s-.24-1.21-.24-1.21v-.73l-.73-.24-.71-.73-1.24-.49.73.73,1.22.73.24.73.49,1.47-.17,1.19-.07.52.31.68-.07.05h-.02s-.96.73-.96.73l-1.47,1.47-.73.73-1.21,1.51-.74,1.67v-.73l-.32-.94-.87-1.71.21-1.26.49-1.22v-1.96l.13-.99.12-.97-.24-1.47.24-1.22v-.73l-.24-2.2-.24,2.69v3.9s-.24.74-.24.74v.98l-.24,1.71-.35,1.24-.38-.75-.24-.73v-1.22l.24-.49v-1.96l-.24-.98-.24-.73-.16-.65.08-.16.32-.66.49-.73.24-.73v-.73l.24-.49v-.98l.03-.11,1.44-.13.98-.24h.73l.49.24h.98l.73-.24.91-.56-.74-.05-1.15.43.49-1.05.98-.73-.59.15-.39.1-.51.68-.22.3-.98.24-1.22.24-1.79.05.07-.29.34-.02.88-.47.49-.49.24-.49v-.49l.24-.24,1.71-.73-1.47.24h-.49l-.12.12-.07.07-.06.06-.24.98-1.3,1.11-.07.06-.34.29.24-.49.24-.98.24-.73v-1.22l-.24.49-.24,1.22-.49,1.47v.55s-.64.02-.64.02l-.82.17-1.22.98-.49-.73-.41-.85-.32-.87v-.24l.73-1.96.49-.24h-.49v-.98l-.24.49-.24.98-.24.49-.24.73-.49-.24-.05-.53.29-.45.24-.73v-.49l.24-.49v-.73l.49-1.47.11-.39.62-.35v-.24h-.24l-.31.16-.18.09-.98-.73.49.49.13.28-.3,1.14-.08.29-.24,1.47-.24.24-.37-.73-.12-1.96-.24,2.45.49.49.24.73-.49.98-.38-.43-.6-.55-.73-.49.24.73-.49-.24-.73-.49-.49-.49-1.67.24-1.51.24-.73.98-.39.45-1.33.29h1.71l.98-1.22,1.96-.73,1.22.49.98.73.98.24.73.49.73.98.49,1.47.49.73h-1.22l-.49.49-1.47.98-.98.73-.73.24-.73.24-.73-.24h-.49l-.73-.24-.73-.24.24.49,1.22.49,2.2.24.98-.98,1.47-.73.98-.98,1.47.24.49.49.49.73.49,1.47.3,1.13-.06.09-.24,2.2-.24,1.22h-.24l-.24-.24-.49-.24-.49-.24-.49-.49-.49-.98-.24-.49.24-.49-.05-.49.29-1.47-.6,1.16-.16.31.04.38.1.84.07.22.3,1-.49-.24-2.2-.98,1.22.73.73.49,1.22.73.98.49.73.98v.98l-.24.49-.24.73-.24.49v1.22l-.24.73.24,1.22-.49-.24h-.24l-.49-.49-.49-.73-.49-.49-.24-.49v-.73l-.49-.24h-.49l-.73-.73-.49-.24-.49-.49-.98-.49-1.22-.24.71.43,1,.3.49.49.73.73.98.49.49.24.24.73v.73h-1.22l-.55.18-.43-.43-.73-.24.49.73.1.13-.35.12-.95.47-.28-.96-.49-.49-.24-.73-1.47-.73,1.22.98.73,1.22.2.88-.69.34-1.47,1.22,1.47-.73.78-.39.2.88.24.98.49.49.49.49.24.98.24,1.22.98,1.71.49.98,1.96.73,1.47.73.71.1.02.14.24.49.49.73.24.98.24,1.22.49.98v2.69l.24.73.24.73.73.73.24.98-.73-.49-.98-.24-.24-.49-.49-.24-1.22-.49-.98-.73-1.47-1.47-.98-.49-.56-.61-.66-.86-.98-.98-.73-.98-.49-.98-.49-.49-.49-.98-.73-.98-.73-.73-.24-.98.24-.98-.24-.98v-.98l-.24,1.47v1.96l.49,1.22.73.73.49.73.49.98.49.73.98,1.22.73,1.47-.98-.49-1.22-.24-1.22-.49-.98-.49-.73-.73-.49-.49-.73-.98-.73-.49-.49-.49-.49-.73-.24-.73-.49-.49-.24-.49v-2.93l-.24-.98v4.4l-.24-1.22-.49-1.47v.73l.24,1.22.24.73.73.49.49.98h-2.2l-.49-.24h-2.2l-.83.24-1.13.73-.98.73-.73.49-.49.73.49-.24.73-.49,1.22-.73.73-.49.73-.49h.49l1.22-.24.24.24.49.24.49.24h1.22l.24-.24h.73l.98.49.24.49.98,1.22.24.24.49.98.73.24v.49h-3.18l-.73.24-.24.24-.98.24h-.49l-.98.24-1.22.24-.98.49-1.47.73-1.22.49-.98.73-.98.98-.49.49-.73.49-.49.24-.73.73-.73.73-.73.98-.73.49-.49.49-.49.24-.73.24-.24.73-.24.98-.24.49.24.73.24-.24v-1.47l.49-.73.49-.24.49-.24.73-.49,1.47-1.47.73-.98.98-.73.98-.49.98-.98v.49l-.73.73-.24.73v1.47l-.24.49v.49l-.49.49-.49.49-.24.73v.73l-.24.98-.24.98.24-.24.24-1.47.49-1.47.73-.98.49-.49v-1.71l.49-.73.24-.98.49-.98.98-.73.49-.49.49-.24.73-.24,1.47-.73.73-.24,1.22-.49h.49l.49.24-.49.24-.24.49-.24.24-.49.49-.49.49-.24.73-.49.73-.73.98-.49.49-.73.49h.73l.73-.49.73-1.22.73-.98.49-.73.73-.73.49-.73.73-.73,1.22-.49h1.96l.73-.24.98.24h.73l.98.24.98.49,1.47.49h.98l.98.49.98.73.98.73.73.73.73.73.98.49.98.24.73.49,1.22.49.24.49.73.98.73.49.73.49v4.16l-.24-.49-.73-.98-.98-.73-.49-.73-.49-.24-.49-.24-1.22.24-.73.24-.73.24-.73-.24-1.22-.24h-.98l-.98-.24h-3.67l-.73.24-.49.24-.33.16-.41-.41-.73-.24-.49-.24-.24-.49-.49-.49-.73-.49-.73-.73-.49-.49-.98-.24.73.73,1.22.98,1.22.98.49.73.73.24.52.35-.77.38h-1.22l-.73.49-.7.35-.52-.35-.49-.24-.24-.24-.24-.49-.49-.49-.73-.49-.24-.49-1.47-.98.73.73.73.73.73.73.73.98.49.49.73.24h0l-.49.24-.24.24-.49.24-.49.73-.08.24.33-.49.98-.49.64-.36.34.85.98.98.98.73.73.73.98.73.71.73.51.73.98.49,1.22.49,1.22.73.98.24,1.22-.24.73.24,1.22.49,1.96.24.73.49h1.22l.98.49,2.2.49.98.73v2.2l.24,2.69.24,2.2v1.96l.24,1.47-.49-.73-.98-1.96-.49-.73-.73-1.22-.73-1.47-.73-1.96-.24-.73-.49-1.22v-.73l-.24-.98v2.2l.49.98.73,1.22.03.11.46,1.85.98,1.96,1.96,3.91.22.9v2.73l-.47-.69-.73-.73h-.24l-.24-1.47-.49-.73-.98-1.22-.24-.73-.73-1.47-.24-.73-1.47-1.47-.73-.49-.49-.49-.98-.24-.73-.49-.24-.24-.49-.49-.73-.73-.49-.98-.24-.49-.73-.73-.98-.49-.73-.49-.73-.24h-.49l-.49-.73-.24-.49-.73-.73-.73-.98-.98-.49-.73-.24-.24-.49-.24-.24v.73l.73.49.73.24.73.73,1.22,1.47.49.98-.49.24h-.98l-.73-.24h-.73l-.73-.24h-.49l-.73.49-.49.49h-2.45l-.24-.73-.98-.49-.98-.24-.73-.49-.24-.73-.49-.24-.24-.73-1.47-1.22.24.24.49.49.49.98.49.98.73.73h-1.71l-1.22.49-.73.49-.73.49-.73.49-.98.24-1.47.73h.49l.73-.24.98-.24.73-.24.98-.73.98-.73.73-.24.98-.24h1.71l.98.49.49.24.24.73h-.98l-1.47.98h-2.45l-.49.24-.98.49-.24.24v.24h.24l.98-.49.98-.49h1.22l.73.24,1.71-.98.73-.24h2.69l.73-.49.73-.49h.98l.73.24h1.71l1.47-.24.98.24.98.73.73.49.49.73.98,1.22.98,1.47.49.24.73.24,1.22.49.24.24.98.98,1.22,1.47.49.98-.49-.24-.49-.49-.98-.24h-1.47l-.73.49-1.33.14-.38-.14-.73-.49-.98-.98-.98-.49-.49-.73h-1.22l-1.47-.24-1.47-.24h-1.96l-1.22.24,1.22.24h2.2l1.96.24h1.22l1.22.98,1.22.73.19.16,1.27,1.06-.73.24-.49.24-.49.24-.24-.24-.49-.24h-1.22l-.73-.24-.49-.24-.49-.24-.73-.49-.98-.24-.24-.24h-1.22l-.98-.24-.98-.24-.98-.24h-.98l-.49-.49-.73-.49-.73-.24h-2.2l-.49-.24h-1.71l-.49-.24h-.73l-1.22-.24-.73-.49-.49-.24-.98-.49-.98-.49-.73-.49h-1.22l-.24-.49-.49-1.22-.73-1.22-.49-.49-.24-.73v-.49l-.49-.73-1.47-1.96.49.73.49.73.24.49.24.98.49,1.22.73.98.73,1.47-.49-.49-.98-.24-.98-.49h-.73l-2.1.24h2.83l.73.49,1.47.98.73.49.8.24h.91l.73.49,1.47.73.73.49.54.24h.69l.09.06.64.43h2.69l-.49.73-.49.24-.73.24-.73.49h-.49l-.73.49h-.73l-.73.24-.74.66-.73.07h-.24l-.98.24h-.73l-.73.24.98.24.98-.24h.98l.49-.24.76-.45.47-.28-.49.98-.73,1.22-.24.49-.73.24-.73.49-.98.24h-.98l-.73.49-.49.24-.95,1.1-.77,1.35.73-.73.73-.98.24-.24.73-.24.49-.49h1.22l.98-.24.98-.49.49-.49.49-.49.24-.73.24-.73.4-.6.58-.63h.24l.49-.24h.98l.73-.49.24-.24.73-.24.73-.73.49-.24h1.47l1.22.49.73.49,1.96.49,1.22.24,1.71.24,1.47.49,1.21.49.75.49.73.24h1.22l.49.49-.73.24h-.49l-.49-.24-.98-.22-.98.22h-2.94l-1.22.24-1.22.24-.98.24h-.98l-.73.49h-.98l-.73.24h-1.22l-.73.24-.73.24-.73.24h-1.96l-.98.24.98.24h.98l1.22-.24h.73l.49-.24,1.22-.24-.73.24-.24.24v1.22l.24-.49v-.49h.73l.73-.49,1.22-.49.98-.24h.24v3.18l.16-.99.08-.48v-1.71l.73-.49h1.22l.98-.24h.73l.73-.24h.49l.98-.24.73.24,1.22-.24.98.24.73.24-.49.73-.73.73-.49.73-.73.98-.49.98h-.24l-.49.73-.73.24-.49.24-.49.49-.24.49.24-.24.49-.24.49-.24h.24l.98-.98v.24l-.14,1.09v1.35l.14.5.18-.64v-1.62l.31-.92.24-.73.73-.98.98-1.47.73-.73.98-.73,1.22-.24.49-.24.98-.24.73-.24.73-.73,1.51-.14.69-.1.49.24.24.49.73.24.73.24h.24l.24.49.49.98.24.73.49.24.24.98.24.49.73.49.73,1.22v1.71l-.49-.24-.49-.73-.73-.98-.49-.73-.73-1.71-.49-.24-.49-.49-.73-.24-.98-.24-.94-.21-.83-.28h-2.39l-.24.49-.24.49-.24.24h-.49l-.24.24h-.98l-.49.24-.49.24h-.49l-.54.46.3.03h.49l.73-.24.49-.49.73.24.73-.24.3-.33.43-.16.24-.73h.73l.98-.24.73.24.24.24h.24l.62.24h.6l.96.23.51.26.49.98.49.73.49.98.49,1.22.73.73.49.98.24.98h-.24l-.98-.24-.73-.24h-.98l-1-.09-.95.03-.75.05-.35.29-.39-.05-.98.49-.73.49-.98.24-.68.17-.55.32-.73.24-.51-.06-.57-.09-.63-.1-.73-.24-.55-.11-.67-.14-.49-.24-.63-.07-.6.07h-1.47l-.98-.24h-1.22l-.24-.24-.49-.49-.24-.24-.49-.49-.49-.24-.49-.49-.49-.24h-1.22l-.98-.24h-1.47l-.73.49-.24.49v.49l.08.61.16-.61v-.49h.49l.24-.49h2.45l.73.24.73.24.49.49.73.24.49.49.24.49-.07.35h-.31l-.85.14-.73.24-.98.49-.98.24-.73.24-.98.24h-.98l-.63-.16h-.74l-.59.4-.73-.24h-1.22l-.98.24.73.24h2.69l.41-.37.43.16.63-.04h.73l.85-.02.93-.03.42.05,1.22-.73-.49.49-.73.98-.49.49-.26.86-.23.36-.37.61-.61.52-.49.58-.49.73-.24.73-.49.49-.49.49-.49.49.03,1.14.28-.67.43-.47v-.24l.49-.24.24-.24.24-.24.24-.49.24-.73.24-.49.47-.52.38-.28.22-.39.39-.28.49-1.22.49-.49.49-.73.49-.49.24-.24.24-.49.73-.24h.73l.98-.24v-.24l.62-.18.97.1.37.07,1.08-.11,1.12-.14.6.41.99.1.6-.02.73.49h1.22v.24l-.87.68-.59.06-.73.49-.24.49-.98.73-.49.24h-.49l-.73.24-.42.4-.31.34-.24.49-.37.49-.36.73-.71.81-.51.17-.49.49-.49.24-.49.24-.64.71.4-.22.95-.28.77-.69.73-.24.49-.49.49-.98.73-1.22v2.93h-.49l-.49.24-.73.24-.49.49-.22.22.22.27.44-.27.35-.51h.59l.83-.2.24-.49v-.98l.1-1.19-.1-.77.49-.49.49-.24h.49l.49-.24.98-.73.93-.7,1.03-.77.98-.49.72-.36,1.14-.38.82-.24.73-.24,2.2-.73-.73.49-.98.49-.73.98-.9,1.05-3.01,1.88-.24.73-3.67,1.96.73-.24.73-.24.98-.49.84-.49.63-.25v-.49l.52-.34.45-.15.8-.57.92-.65.73-.73.49-.24.73-.98,1.22-.73.24-.24.49-.24.49-.24.24-.49h.49l1.47-.03.73.27.49.24.98.18,1.22.56v1.71l-.24,1.22v3.42l.24.73-.14,1.18.14.77-.07,1.28-.14.72-.28.7-.24.24-.73.98-.49,1.22-.49.73-.49.49-.39.37-.1.61v.73l-.24.49.24.98-.73.73-.26-.03-.47-.22-.73-.49h-1.47l-.49-.24-1.22-.24-.73-.73h-.73l-.67-.07-1.04-.17-.73-.49v-.49h-3.18l-.47.24h3.41v.49l.49.24.35.24h.63l.73.24.65-.11.58.11.37.37.37.36h.73l.73.24.49.24h.98l.49.24.49.24.24.49-.98,1.22-1.46,1.05-1.66.56-1.2.2h-1.01l-1.04-.2-.98-.39-.89-.36-.9.19-.9.17-.73.24-1.13.35-.83.14-1.17.66-.97.5h-1.31l-.46.31-2.69,1.47-.61.41-.12.56.49.68v-.92l.73-.49.98-.49.98-.49.73-.49h.98l.65-.18.62-.38.68-.18.73-.49,1.22-.24-.73.73-.73.49-1.17.16-.3.82-.24,1.22.54-1.01.44-.7.49-.24h.49l.38-.18.84-.56.6-.6.63-.38.9-.34.32-.24.65.24.33.34.73.49h1.71l1.3.31.7-.35,1.03-.48,1.38.03.42-.14.81-.59.73-.98.95-.81.9,1.62.28,1.15h1.55l.98,1.47.79,1.22h.92l-.16,2.76h-2.03l-1.84,1.17,1.1-.51.84-.32,1.85.07.36,7.58h-2.56l-3.06,1.95,3.32-1.24h2.32l.86,8.84.12,4.84.98,7.51-.98,8.23v2.04l-.98,2.1v2.54l5.26.12.24-1.22v-2.69l.49-2.69-.73-3.91-.49-3.91-.73-4.65-.24-5.87-.49-11.49.73-.24,1.96-.49h3.91l2.2-.24.98-.49.73-.49h1.71l.98-.49.73-.73,1.47-2.93-1.96,2.69-.27.27-.47.47-1.22.24h-1.47l-.49.73-1.22.24h-1.22l-7.34-.24-.24-.24v-4.16l-.24-2.69v-.98l.49-.24.73-.73,1.22-.98,1.22-.98.49-.49.49-.98.24-.49v-4.4l.24-.98.49-.98-.98.73-.24,2.69.24,2.2-.16.98-2.04,1.71-1.47,1.22-.98.24v-1.71l-.24-2.69.24-1.96-.24-1.47h.49l1.22-.24.98-.24.98-1.47.24-1.22-.73,1.22-1.22.98-.98.24h-1.22v-1.96l-.24-2.69.98.24.49.24,1.09-.51-.74-.22-.35-.24-.62-.6.37-1.6.73-.98.98-1.71.73-1.22v-.98l.07-.33.67.33.73.24,1.47.24h3.43l1.71-.24,1.47-.24,1.47-.98.73.24h2.69l1.47-.24,1.47-.73,1.47-.73,2.45-1.47-1.71.49Zm-11.01-36.2l.73-1.22.49-1.22.49-.98.24-1.22.05-.37.68,1.59.52,1.15-.03.07-1.47,1.71-.49.49-1.67,1.33.44-1.33Zm-4.65,7.34l.98-.49.73-.49v-.73l.24-1.22.24-.73.73-.49,1.22-.98,1.47-1.47.73-.73.98-.98.87-.52.35.77.24.73.98,2.2.24,1.47-.24,2.2.24.49v2.93l-.24,2.45-.49.73h-.49l-.49-.24-.49-.49-.73-.49-.73-.49-.73-.73-.49-.24-.73-.49v-.49l-.98-2.2v-.73l-.49-1.47v1.22l.49,1.96.02.11.22,1.11-1.47-.24h-2.45l-.24-.24.49-.98Zm-12.48-17.85l-.24,1.22-.73-1.22-.73-.73-1.47-1.47v-.24l.24-.49.24-.73.49-.73.24-.49v-2.2l.24-.73.11-.22.14.22.24.73v.73l.24,1.47.24,1.96.49.73.73.98-.49,1.22Zm4.16-13.94l.49,1.47v2.45l-.24.73-.24.73-.73.73-.49,1.22-.49.49-.24.24v-.73l-.24-.73-.24-.98-.24-.49v-.73l-.24-.49-.24-.24v-.49l.49-.24v-.73l-.24-.73v-1.22l.24-.49.24-.49,1.33-1.33.38.84.73,1.22Zm-6.36,3.18l.24-.73.24-.73.73-.73.73-.98.24-.24.73-.73.73-.98.49-.49.71-.44.06.14-.04.31-.98,1.22-.49.49-.49.73.24.98v1.22l-.49.73v1.47l.73.73.24,1.22.24.73v1.22l.24.49-.73.73-.49,2.45-.49-.49-.49-.73-.24-.73-.24-1.22v-2.2l-.6-1.07.6-.4v-.98l.49-.98-.49.49-.49.98-.38.38-.35-.63-.31-.74.07-.48Zm-.98-.24l.49,1.22.75,1.2-.26.26v2.45l-.24.98-.49.98-.49.49-.24,1.22-.49-.73-.73-.24-1.22-.31v-.43l-.24-1.22-.02-.09.27-.89v-.49l.49-.98.24-.98.49-1.22.24-.98.24-.98v-.49l.24-.98.11-.44.38.68v.49l.49,1.47Zm-3.18-14.67l.22-.89.51-.33.49-.24.98-.09v.09l-.21,1.03-.04.19-.24,1.47-.79,1.26-.19-.77-.24-.73-.49-.98Zm-.73,13.7v-2.2l.24-1.22.24-.24.24-.49v-1.47l.49-1.22.24-1.22v-1.47l.05-.19.44,1.66v1.47l-.24,1.96.49,1.47.49.88v1.08l-.73,1.22v1.47l-.24,1.22-.24.73-.49.73-.43,1.21.19-1.7v-.73l-.49-.49v-.49l-.24-.73v-1.22Zm-3.43-1.47h1.22l.24.73.98.73h-2.2l-.49-.24-.62-.45-.2-.44,1.07-.33Zm3.18,9.05v.98l-.98-.49-.73-.49-.49-.24-.49-.49-.73-.49-.24-.73-.49-.73v-.73l-.49-.98-.49-.98-.49-.73-.24-.98-.24-.49-.1-.35.51-.35.96-.29.24.29.6.69.37.49.85.24h.73l.73-.24.73.24.24.73.24.73.49,1.22v.98l-.24,1.22v1.24s-.24.71-.24.71Zm.49.73l.18-.61.06.12.06.35.04.22-.34-.09Zm5.87,12.72l-.73-.73-.49-.73-.73-.98-.49-.98-.24-.49-.24-.98-.24-1.22-.24-.73v-.98l-.24-.73v-.98l-.49-.49-.24-.73-.49-.98-.04-.08.53.08.73.24.49.49.98.49.73.73.98.98.98,1.47.49.73.24.73v.98l-.49,1.22-.49.73.24,2.93h-.49Zm-8.81,11.98l-.73-.24-.98-.24-.73-.49-.49-.24-.73-.24-.49-.24-.49-.49-.24-.24-.98-.98-.73-.73-.49-.49-.73-.49-.73-.49-.24-.49-.49-.49-.2-.59.69-.39.49-.24h.73l1.54-.64.66.89.49.98.49.49.49.73.49.73.49.24.49.73.49.98.49.98.98.73.73.98h-.24Zm9.3,1.96l-.73-.24-.73-.24-.98-.24-.24-.24-.24-.49-.24-.49v-.98l-.24-.24v-.98l-.24-.24.24-1.47v-.73l-.24-2.45v-.73l-.24-.73v1.47l.17,1.01.08.46v1.71l-.06.31-.09.46-.09.45.24,1.22.24.98.24,1.22.24.49h-.24l-.49-.24-.49-.24h-.73l-.73-.24h-.73l-.73-.24-.49-.24-.73-.24-.49-.24-.24-.49-.73-.98-.73-.49-.24-.24-.24-.73-.49-.49-.49-.73-.49-.49-.49-.49-.24-.73-.73-.98-.73-1.22-.2-.1.93-.39h3.91l.73.24h.73l.98.24.98.24.98.24.49-.49.49-.24h1.22l.24.24.73.24.73.98.73.73.73.98.24.24.49.24v.98l.49,3.42.24,2.45-1.22.24Zm2.72,42.89v3.3l-1.65-1.65-1.65-2.07v-3.69l2.47-1.65.82,1.62v4.15Zm1.68-35.06l-.49,1.71v-1.71l-.24-2.2-.73-4.4-.24-.98-.24-1.22v-.73l-.24-1.22v-1.22h.24l.24.24h.98l1.22-.24,1.22.24.11.05-.11,1.17-.49,1.71-.24,2.69-.49,1.22-.24,2.69-.24,2.2Zm3.43,20.79l-.73,1.22-.73,1.22-.49,1.47-.49.98v-.24l-.07-.92.07-1.28-.24-1.71.24-2.2,1.22-.49.73-.2.98-.04.19.1-.19.64-.49,1.47Z"/>
          <polygon class="cls-3" points="1071.12 71.15 1071.29 70.67 1071.12 70.91 1071.12 71.15"/>
        </g>
        <g class="cls-1">
          <path class="cls-3" d="m651.5,98.21l2.9,1.74,1.74.87,1.74.87,1.74.29h1.45s1.74,0,1.74,0l.87-.29,1.74,1.16,1.74.29,2.03.29h2.03s2.03,0,2.03,0l1.74-.29.87-.29.79-.39.08.39v1.16s.87,1.45.87,1.45l1.16,2.03.87,1.16.44,1.9-.73.71-.41.29-.87.27,1.28.6.58-.29,1.16-.29-.29,3.18v2.32h-1.45s-1.16-.29-1.16-.29l-1.45-1.16-.87-1.45.29,1.45,1.16,1.74,1.16.29,1.45.29h.58l-.29,1.74.29,2.31-.29,3.18v1.16s0,.87,0,.87l-1.16-.29-1.74-1.45-2.42-2.02-.19-1.16.29-2.6-.29-3.18-1.16-.87.58,1.16.29,1.16v1.16s0,1.16,0,1.16v1.74s0,1.16,0,1.16l.29.58.58,1.16.58.58,1.45,1.16,1.45,1.16.87.87.58.29v1.16s-.29,3.18-.29,3.18v1.74s0,1.16,0,1.16v.87s0,1.16,0,1.16l-.29.29-8.69.29h-1.45s-1.45-.29-1.45-.29l-.58-.87h-1.74s-1.45-.29-1.45-.29l-.55-.55-.32-.32-2.32-3.18,1.74,3.47.87.87,1.16.58h1.16s.87,0,.87,0l.87.58,1.16.58,2.61.29h2.61s2.03,0,2.03,0l2.32.58.87.29-.58,13.6-.29,6.95-.87,5.5-.58,4.63-.87,4.63.58,3.18v1.45s0,1.74,0,1.74l.29,1.45,6.22-.14v-3.01s-1.16-2.49-1.16-2.49v-2.42s-1.16-9.74-1.16-9.74l1.16-8.89.14-5.72,1.01-10.45h2.74s3.92,1.47,3.92,1.47l-3.63-2.3h-3.03s.42-8.97.42-8.97l2.19-.08.99.37,1.3.61-2.17-1.39h-2.4s-.19-3.27-.19-3.27h1.09s.93-1.45.93-1.45l1.16-1.74h1.18s.65,0,.65,0l.33-1.36,1.06-1.91,1.12.96.87,1.16.95.7.49.17,1.63-.04,1.22.57.83.41,1.54-.36h.58s1.45,0,1.45,0l.87-.58.39-.41.77-.29.38.29,1.07.41.74.45.7.71,1,.66.45.21h.58s.58.29.58.29l.52.83.64,1.19-.29-1.45-.35-.97-1.39-.18-.87-.58-.87-.87,1.45.29.87.58.81.21.74.45.77.21h1.16s.87.58.87.58l1.16.58,1.16.58.87.58v1.09s.58-.8.58-.8l-.14-.67-.73-.49-3.18-1.74-.55-.37h-.82s-.74,0-.74,0l-1.14-.59-1.39-.78-.98-.17-1.33-.41-.87-.29-1.07-.2-1.06-.23-1.05.43-1.16.46-1.23.24h-1.19s-1.42-.24-1.42-.24l-1.96-.66-1.73-1.24-1.16-1.45.29-.58.58-.29.58-.29h1.16s.58-.29.58-.29l.87-.29h.87s.43-.43.43-.43l.43-.44.68-.13.76.13.87-.29h.75s.41-.29.41-.29l.58-.29v-.58h1.45s.67,0,.67,0h.86s.78,0,.78,0h.29s-.56-.29-.56-.29h-3.76s0,.58,0,.58l-.87.58-1.23.2-.8.08h-.87s-.87.87-.87.87l-1.45.29-.58.29h-.58s-1.16,0-1.16,0l-.87.58-.56.26-.31.03-.87-.87.29-1.16-.29-.58v-.87s-.12-.73-.12-.73l-.46-.43-.58-.58-.58-.87-.58-1.45-.87-1.16-.29-.29-.33-.83-.16-.85-.09-1.51.17-.92-.17-1.4.29-.87v-1.16s0-1.74,0-1.74v-1.16s-.29-1.45-.29-1.45v-1.45s0-.58,0-.58l1.45-.66,1.16-.21.58-.29.87-.32,1.74.03h.58l.29.58.58.29.58.29.29.29,1.45.87.87,1.16.58.29.87.87,1.09.77.94.67.54.18.62.4v.58s.75.29.75.29l.99.58,1.16.58.87.29.87.29-4.34-2.31-.29-.87-3.56-2.23-1.07-1.25-.87-1.16-1.16-.58-.87-.58,2.61.87.87.29.97.28,1.35.45.86.43,1.16.58,1.22.91,1.1.82,1.16.87.58.29h.58s.58.29.58.29l.58.58-.12.91.12,1.41v1.16s.29.58.29.58l.98.24h.69s.41.6.41.6l.52.32.26-.32-.26-.26-.58-.58-.87-.29-.58-.29h-.58v-1.16s0-1.16,0-1.16v-1.16s.87,1.45.87,1.45l.58,1.16.58.58.87.29.91.82,1.12.34.47.26-.76-.84-.58-.29-.58-.29-.58-.58-.61-.2-.84-.96-.43-.87-.44-.58-.29-.58-.37-.4-.5-.47-.87-.29h-.58s-.58-.29-.58-.29l-1.16-.87-.29-.58-.87-.58-.7-.07-1.03-.8v-.29h.58s.87,0,.87,0l.87-.58.71.02,1.18-.11.72-.49,1.33.16,1.28.13.44-.08,1.14-.12.73.21v.29s1.16.29,1.16.29h.87s.87.29.87.29l.29.58.29.29.58.58.58.87.58.58.58,1.45.47.34.26.46.45.33.56.62.29.58.29.87.29.58.29.29.29.29.58.29v.29s.5.55.5.55l.33.79.04-1.34-.58-.58-.58-.58-.58-.58-.29-.87-.58-.87-.58-.69-.72-.62-.44-.72-.27-.43-.31-1.02-.58-.58-.87-1.16-.58-.58,1.45.87.5-.06,1.1.04,1.01.02h.87s.75.04.75.04l.5-.19.48.44h.87s1.16,0,1.16,0h.58s.58,0,.58,0l.87-.29-1.16-.29h-.58s-.87,0-.87,0l-.87.29-.7-.47h-.87s-.75.18-.75.18h-1.16s-1.16-.29-1.16-.29l-.87-.29-1.16-.29-1.16-.58-.87-.29-1-.16h-.37l-.08-.42.29-.58.58-.58.87-.29.58-.58.87-.29.87-.29h1.34s.98,0,.98,0h.58l.29.58h.58v.58s.19.72.19.72l.1-.72v-.58s-.29-.58-.29-.58l-.87-.58h-.87s-.87,0-.87,0l-1.16.29h-.87s-.58,0-.58,0l-.58.29-.58.58-.58.29-.58.58-.29.29-.58.58-.29.29h-1.45s-1.16.29-1.16.29h-1.16s-.58,0-.58,0l-.7-.08-.74.08-.58.29-.8.16-.65.13-.87.29-.75.12-.68.11-.6.07-.87-.29-.65-.37-.8-.2-1.16-.29-.87-.58-1.16-.58-.46.06-.41-.35-.88-.06-1.12-.04-1.18.1h-.87s-.29,0-.29,0l-.87.29-1.16.29h-.29l.29-1.16.58-1.16.87-.87.58-1.45.58-1.16.58-.87.58-1.16.6-.3,1.14-.28h.71s.74-.29.74-.29h.29s.29-.29.29-.29l.87-.29,1.16.29h.87s.29.87.29.87l.51.19.36.39.87.29.87-.29.58.58.87.29h.58s.35-.03.35-.03l-.64-.55h-.58s-.58-.29-.58-.29l-.58-.29h-.58s-.58,0-.58,0l-.29-.29h-.58l-.29-.29-.29-.58-.29-.58h-.87s-1.16,0-1.16,0h-.8s-.99.33-.99.33l-1.11.25-1.16.29-.87.29-.58.58-.58.29-.87,2.03-.58.87-.87,1.16-.58.87-.58.29v-.29s0-.87,0-.87v-.87s.87-1.45.87-1.45l.87-.58.29-.58.29-1.16.58-.29.29-.87.58-1.16.29-.58h.29s.87-.29.87-.29l.87-.29.29-.58.58-.29.82.12,1.78.17.87.87.87.29,1.16.29.58.29,1.45.29,1.16.87.87.87,1.16,1.74.87,1.16.29.87.36,1.09v1.18s0,.74,0,.74l.22.75.16-.59v-.61s0-.98,0-.98l-.16-1.29v-.29s1.16,1.16,1.16,1.16h.29l.58.29.58.29.29.29-.29-.58-.58-.58-.58-.29-.87-.29-.58-.87h-.29l-.58-1.16-.87-1.16-.58-.87-.87-.87-.58-.87.87-.29,1.16-.29,1.45.29.87-.29,1.16.29h.58s.87.29.87.29h.87s1.16.29,1.16.29h.87s.58,0,.58,0l.87.58v.58s0,1.45,0,1.45l.1.57.19,1.17v-1.74s0-.58,0-.58v-1.45h.29s1.16.29,1.16.29l1.45.58.87.58h.87v.58s.29.58.29.58v-.87s0-.58,0-.58l-.29-.29-.87-.29,1.45.29.58.29h.87s1.45.29,1.45.29h1.16s1.16-.29,1.16-.29l-1.16-.29h-.58s-.87,0-.87,0h-.87s-.87-.29-.87-.29l-.87-.29-.87-.29h-1.45s-.87-.29-.87-.29h-1.16s-.87-.58-.87-.58h-1.16s-1.16-.29-1.16-.29l-1.45-.29-1.45-.29h-1.45s-1.16,0-1.16,0h-.87s-1.16-.27-1.16-.27l-1.16.27-.58.29h-.58s-.87-.29-.87-.29l.58-.58h1.45s.87-.29.87-.29l.89-.58,1.43-.58,1.74-.58,2.03-.29,1.45-.29,2.32-.58.87-.58,1.45-.58h1.74s.58.29.58.29l.87.87.87.29.29.29.87.58h1.16s.58.29.58.29h.29l.68.74.47.7.29.87.29.87.58.58.58.58,1.16.58,1.16.29h.58s.87,0,.87,0l.58.58.87.29.29.29.87,1.16.87.87-.91-1.59-1.12-1.3-.58-.29-.87-.58h-1.16s-1.16-.29-1.16-.29l-.87-.58-.87-.29-.29-.58-.87-1.45-.58-1.16.55.33.9.54.58.29h1.16s1.16.29,1.16.29l1.16-.29-.87-.29h-.87s-1.16-.29-1.16-.29h-.29s-.87-.08-.87-.08l-.87-.78-.87-.29h-.87s-.87-.58-.87-.58h-.58s-.87-.58-.87-.58l-.87-.29-.58-.29-.58-.87h1.74s1.16,0,1.16,0h.29s.76-.51.76-.51l.11-.07h.81s.63-.29.63-.29l.87-.58,1.74-.87.87-.58h1.08s.94-.29.94-.29l.87-.58,1.74-1.16.87-.58h.87s1.78,0,1.78,0h.69s-2.48-.29-2.48-.29h-.87s-1.16.58-1.16.58l-1.16.29-.58.58.87-1.74.87-1.16.58-1.45.29-1.16.29-.58.58-.87.58-.87-1.74,2.32-.58.87v.58s-.29.87-.29.87l-.58.58-.87,1.45-.58,1.45-.29.58h-1.45s-.87.58-.87.58l-1.16.58-1.16.58-.58.29-.87.58-1.45.29h-.87s-.58.29-.58.29h-.87s-1.16,0-1.16,0l-.58.29h-.87s-.87,0-.87,0h-.87s-.87.29-.87.29l-.87.58-.58.58h-1.16s-1.16.29-1.16.29l-1.16.29-1.16.29h-1.45s-.29.29-.29.29l-1.16.29-.87.58-.58.29-.58.29-.87.29h-.58s-.87,0-.87,0l-.58.29-.29.29-.58-.29-.58-.29-.87-.29,1.51-1.25.23-.19,1.45-.87,1.45-1.16h1.45s2.32-.29,2.32-.29h2.61s1.45-.29,1.45-.29l-1.45-.29h-2.32s-1.74.29-1.74.29l-1.74.29h-1.45s-.58.87-.58.87l-1.16.58-1.16,1.16-.87.58-.45.16-1.58-.16-.87-.58h-1.74s-1.16.29-1.16.29l-.58.58-.58.29.58-1.16,1.45-1.74,1.16-1.16.29-.29,1.45-.58.87-.29.58-.29,1.16-1.74,1.16-1.45.58-.87.87-.58,1.16-.87,1.16-.29,1.74.29h.87s1.16,0,1.16,0l.87-.29h1.16s.87.58.87.58l.87.58h1.45s1.74,0,1.74,0l.87.29,2.03,1.16.87-.29h1.45s1.16.58,1.16.58l1.16.58h.29s0-.29,0-.29l-.29-.29-1.16-.58-.58-.29h-.87s-1.16,0-1.16,0h-.87s-1.74-1.16-1.74-1.16h-.87s-.29,0-.29,0l.29-.87.58-.29,1.16-.58h.87s1.16,0,1.16,0l1.16.29.87.29,1.16.87,1.16.87.87.29,1.16.29.87.29h.58s-1.74-.87-1.74-.87l-1.16-.29-.87-.58-.87-.58-.87-.58-1.45-.58h-1.45s-.58,0-.58,0l.87-.87.58-1.16.58-1.16.58-.58.29-.29-1.74,1.45-.29.87-.58.29-.29.87-.87.58-1.16.29-1.16.58-.29.87h-.58s-1.16,0-1.16,0h-1.16s-.58-.58-.58-.58l-.87-.58h-.58s-.87.29-.87.29h-.87s-.87.29-.87.29h-1.16s-.58-.29-.58-.29l.58-1.16,1.45-1.74.87-.87.87-.29.87-.58v-.87s-.29.29-.29.29l-.29.58-.87.29-1.16.58-.87,1.16-.87.87-.29.58-.58.87h-.58s-.87.29-.87.29l-.87.58-1.16.58-.87.87-.29.58-.58,1.16-.87.87-.58.58-.29.29-.87.58-1.16.29-.58.58-.87.58-1.74,1.74-.29.87-.87,1.74-.29.87-1.16,1.45-.58.87-.29,1.74h-.29s-.87.87-.87.87l-.55.82v-3.23s.26-1.07.26-1.07l2.32-4.63,1.16-2.32.55-2.19.03-.12.87-1.45.58-1.16v-1.45s0-.53,0-.53v-.62s-.29,1.16-.29,1.16v.87s-.58,1.45-.58,1.45l-.29.87-.87,2.32-.87,1.74-.87,1.45-.58.87-1.16,2.32-.58.87.29-1.74v-2.31s.29-2.6.29-2.6l.29-3.18v-1.74s0-.87,0-.87l1.16-.87,2.61-.58,1.16-.58h1.45s.87-.58.87-.58l2.32-.29,1.45-.58.87-.29,1.45.29,1.16-.29,1.45-.87,1.45-.58,1.16-.58.61-.87.84-.87,1.16-.87.87-.87,1.16-.87,1.16-1.16.4-1.01.75.43,1.16.58.39.58-.1-.29-.58-.87-.58-.29-.29-.29-.58-.29h0l.87-.29.58-.58.87-1.16.87-.87.87-.87.87-.87-1.74,1.16-.29.58-.87.58-.58.58-.29.58-.29.29-.58.29-.62.41-.83-.41-.87-.58h-.87s-.58,0-.58,0l-.91-.45.62-.41.87-.29.58-.87,1.45-1.16,1.45-1.16.87-.87-1.16.29-.58.58-.87.87-.87.58-.58.58-.29.58-.58.29-.87.29-.48.48-.39-.19-.58-.29-.87-.29h-1.45s-1.74,0-1.74,0h-1.16s-1.16.29-1.16.29h-1.16s-1.45.29-1.45.29l-.87.29-.87-.29-.87-.29-1.45-.29-.58.29-.58.29-.58.87-1.16.87-.87,1.16-.29.58v-2.6s0-1.45,0-1.45v-.87s.87-.58.87-.58l.87-.58.87-1.16.29-.58,1.45-.58.87-.58,1.16-.29,1.16-.58.87-.87.87-.87,1.16-.87,1.16-.87,1.16-.58h1.16s1.74-.58,1.74-.58l1.16-.58,1.16-.29h.87s1.16-.29,1.16-.29l.87.29h1.45s.87,0,.87,0l1.45.58.87.87.58.87.87.87.58.87.87,1.16.87,1.45.87.58h.87s-.87-.58-.87-.58l-.58-.58-.87-1.16-.58-.87-.29-.87-.58-.58-.58-.58-.29-.29-.29-.58-.58-.29.58-.29h.58s1.45.58,1.45.58l.87.29,1.74.87.87.29.58.29.58.58,1.16.87.58,1.16.29,1.16.58.87v1.16s0,.87,0,.87l.58.58.87,1.16.58,1.74.29,1.74.29.29-.29-1.16-.29-1.16v-.87s-.29-.87-.29-.87l-.58-.58-.58-.58v-.58s-.29-.58-.29-.58v-.87s0-.87,0-.87l-.29-.87-.87-.87v-.58s1.16,1.16,1.16,1.16l1.16.58,1.16.87.87,1.16,1.74,1.74.87.58.58.29.58.29.58.87v.87s0,.87,0,.87l.29.29.29-.87-.29-.58-.29-1.16-.29-.87-.87-.29-.58-.29-.58-.58-.87-.58-.87-1.16-.87-.87-.87-.87-.58-.29-.87-.58-.58-.58-1.16-1.16-1.16-.87-1.45-.58-1.74-.87-1.16-.58-1.45-.29-1.16-.29h-.58s-1.16-.29-1.16-.29l-.29-.29-.87-.29h-1.16s-.87,0-.87,0h-.58s-.58,0-.58,0h-.58v-.58l.87-.29.58-1.16.29-.29,1.16-1.45.29-.58,1.16-.58h.87s.29.29.29.29h1.45s.58-.29.58-.29l.58-.29.29-.29,1.45.29h.58s.87.58.87.58l.87.58,1.45.87.87.58.58.29-.58-.87-.87-.58-1.16-.87-1.33-.87-.98-.29h-.87s-1.74,0-1.74,0l-.58.29h-.58s-.87,0-.87,0h-.58s-.58,0-.58,0l.58-1.16.87-.58.29-.87.29-1.45v-.87s-.58,1.74-.58,1.74l-.29,1.45v-1.45s0-1.45,0-1.45v-2.31s-.29,1.16-.29,1.16v1.45s0,.87,0,.87v1.16s-.29.58-.29.58l-.58.58-.29.87-.58.87-.58.58-.87.58-.87,1.16-.58.58-.87.87-1.16.58-1.45.58-1.45.29-1.16.58.87-1.74,1.16-1.45.58-.87.58-1.16.58-.87.87-.87.58-1.45v-1.45s0-.87,0-.87l-.29-1.74v1.16s-.29,1.16-.29,1.16l.29,1.16-.29,1.16-.87.87-.87,1.16-.58,1.16-.58.58-.58,1.16-.87,1.16-1.16,1.16-.78,1.01-.66.72-1.16.58-1.74,1.74-1.16.87-1.45.58-.58.29-.29.58-1.16.29-.87.58.29-1.16.87-.87.29-.87.29-.87v-.87s0-1.16,0-1.16v-1.16s.58-1.16.58-1.16l.29-1.45.29-1.16.58-.87.29-.58.03-.17.84-.12,1.74-.87,2.32-.87.58-1.16,1.16-2.03.29-1.45.29-1.16.58-.58.58-.58.29-1.16.23-1.04.93.46,1.74.87-1.74-1.45-.81-.41.23-1.04.87-1.45,1.45-1.16-1.74.87-.29.87-.58.58-.33,1.14-1.12-.56-.41-.14.12-.15.58-.87-.87.29-.51.51-.65-.22h-.87s-.58,0-.58,0v-.87s.29-.87.29-.87l.58-.29,1.16-.58.87-.87.58-.58,1.18-.36.84-.51-1.45.29-1.16.58-.58.58-.58.29-.87.87h-.58s-.58.29-.58.29v.87s-.29.58-.29.58l-.58.58-.58.87-.58.58h-.29s-.58.29-.58.29l.29-1.45-.29-.87v-1.45s-.29-.58-.29-.58l-.29-.87-.29-.58v-1.16s.87-1.16.87-1.16l1.16-.58,1.45-.87.87-.58,1.45-.87-2.61,1.16-.58.29.36-1.18.08-.26.11-1,.05-.45-.19-.36-.71-1.38.35,1.74-.06.58.29.58-.29.58-.58,1.16-.58.58-.58.29-.58.29-.29.29h-.29l-.29-1.45-.29-2.6-.07-.11.36-1.34.58-1.74.58-.87.58-.58,1.74-.29,1.16,1.16,1.74.87,1.16,1.16,2.61-.29,1.45-.58.29-.58-.87.29-.87.29h-.58s-.87.29-.87.29l-.87-.29-.87-.29-1.16-.87-1.74-1.16-.58-.58h-1.45s.58-.87.58-.87l.58-1.74.87-1.16.87-.58,1.16-.29,1.16-.87,1.45-.58,2.32.87,1.16,1.45h2.03s-1.57-.34-1.57-.34l-.46-.53-.87-1.16-1.78-.29-1.98-.29-.58.58-.87.58-.58.29.29-.87-.87.58-.7.65-.45.51-.58-1.16.29-.87.58-.58-.29-2.89-.14,2.32-.44.86-.29-.29-.29-1.74-.09-.35-.35-1.35.15-.33.58-.58-1.16.87-.21-.1-.37-.19h-.29s0,.29,0,.29l.74.41.13.46.58,1.74v.87s.29.58.29.58v.58s.29.87.29.87l.35.53-.06.63-.58.29-.29-.87-.29-.58-.29-1.16-.29-.58v1.16h-.58s.58.29.58.29l.87,2.31v.29s-.38,1.03-.38,1.03l-.49,1-.58.87-1.45-1.16-.97-.2-.76-.02v-.65s-.58-1.74-.58-1.74l-.29-1.45-.29-.58v1.45s.29.87.29.87l.29,1.16.29.58-.41-.35-.09-.07-1.54-1.32-.29-1.16-.07-.07-.08-.08-.14-.14h-.58s-1.74-.29-1.74-.29l2.03.87.29.29v.58s.29.58.29.58l.58.58,1.05.56.4.02.09.34-2.11-.06-1.45-.29-1.16-.29-.27-.35-.6-.8-.46-.11-.7-.18,1.16.87.58,1.25-1.36-.51-.87.05,1.08.66.87.29h1.16s.58-.29.58-.29h.87s1.16.29,1.16.29l1.7.15.03.13v1.16s.29.58.29.58v.87s.29.87.29.87l.58.87.38.78.1.19-.19.77-.29.87-.29,1.16v1.16s0,1.16,0,1.16l.29.58v1.45s-.29.87-.29.87l-.45.88-.42-1.46-.29-2.03v-1.16s-.29-.88-.29-.88v-2.88s0-1.74,0-1.74l-.29-3.18-.29,2.6v.87s.29,1.45.29,1.45l-.29,1.74.14,1.15.15,1.17v1.45s0,.87,0,.87l.58,1.45.25,1.49-1.03,2.03-.37,1.11v.87s-.88-1.98-.88-1.98l-1.44-1.78-.87-.87-1.74-1.74-1.14-.85h-.02s-.08-.07-.08-.07l.37-.81-.09-.62-.2-1.41.58-1.74.29-.87,1.45-.87.87-.87-1.47.58-.84.87-.87.29v.87s-.3,1.44-.3,1.44v1.75s-.21.52-.21.52l-.07-.52-.29-.87-.43-1.51-.15-.52v-.87s.29-.58.29-.58v-1.16s0-2.32,0-2.32v-.58s-.58,1.74-.58,1.74l.29,1.16v.87h-.58l-.35-.67-.23-.78-.58-1.16-.87-.58-.58-.29h-.58s.58.87.58.87l.87.29.87,1.45.29.58.29,1.16.58,2.03.29.87.29.58.09.94-.09-.07-1.45-.58h-.87v-.98s0-1.25,0-1.25l-2.32-.66,1.45.87h.58v1.16s-.58.58-.58.58l-.29.29.58.29,1.45.58h.87s.74.46.74.46l.03.26-1.06,2.46-.58.87v.87s-.29,1.16-.29,1.16v1.16s-.58-1.45-.58-1.45v-1.45s0-1.45,0-1.45v-.87s-.29,1.74-.29,1.74v.87s0,1.16,0,1.16v1.74s.58.58.58.58v.87s0,1.16,0,1.16l1.16,1.45.87,1.74,2.03,3.18.87,2.31.29,2.31v1.16s0,.58,0,.58l-.58.29-.87-1.45-.58-1.16h-.87s-.87-.58-.87-.58l-.58-.58-.58-1.16-.29-1.45-1.16-2.03-.29-1.16v-1.45s-.29-.87-.29-.87l-.58-.29-.58-1.16-1.16-1.16-1.88-1.43-2.17-.89-2.9-1.74,2.32,2.31h.58s1.16.58,1.16.58l1.74,1.16,1.16,1.16.87.87.87.87.29.58.29,1.16.29,2.03.58,1.45.58,1.16.58,1.45.58,1.16.87.58,1.16.29.87,1.16v1.45s.58.87.58.87l.58.58.29.87.29,2.03v2.32s0,1.16,0,1.16v2.89s0,2.31,0,2.31l-.58,2.03-.29,1.45-.58,1.74h-2.32s-1.45,0-1.45,0h-1.11l-.05-.58v-1.16s-.29-1.74-.29-1.74l-.29,2.32v.87s.07.67.07.67l-1.8,1.35-1.16.29-1.74-.29.14-1.49.43-1.98.58-1.16.58-1.74.87-1.45,1.16-2.89,2.03-1.74.87-1.45.87-2.03.29-2.32-.87,1.74-.58,1.74-.58,1.16-.87.87-.87,1.16-1.45,2.03-.58,1.16.58-2.6.87-2.31.58-3.18-.29-2.6-.58-1.45-1.45-1.45-.87-1.16-1.45-1.45.72-.97,1.01-1.92.58-1.74.29-2.03-1.16,2.6-.29.87-.58,1.45-.58-.58-.87-1.16-.87-1.74v-1.16s0-2.03,0-2.03l-.29-2.03-.29-.87v2.03s0,1.74,0,1.74v1.74s0,1.45,0,1.45l.29.87.87.87.87.87v.87s0,.58,0,.58v.87s.58.87.58.87l.58.58,1.16,1.45,1.16,1.16.29.87.29,1.16v1.16s0,1.16,0,1.16l-.29,1.45-.29,1.74-.29.87-.29,1.16-.58-1.45-.58-.87-.58-1.74-.58-1.74-.29-1.45-.29-1.45.58-.58,1.16-.58-1.23-.14-1.09.43-.29.58.58,1.74.29,1.74.29,1.16.58,2.03.58.87.87,1.45v.87s0,1.16,0,1.16l-.58,1.16-.58.87-.14.25-.43-1.11-1.16-1.16-.58-.58h-.58s.87.87.87.87l.58.58.58,1.45.87,1.45-.29.58-.29,1.16v1.16s-.29,1.16-.29,1.16l-.29.29h-.58l-.29-1.16-.58-1.45-.87-.58-.87-.29-.29-2.03-.29-1.45-1.74-1.45-.29-.58-.2-.35-.06-.11-.9-1.57-.87-1.74-.87-1.74-.29-1.45-.21-1.45.5-1.16,1.45-2.6.87-2.03.58-.87v-.87s0-2.6,0-2.6l-.29,2.03-.29,1.16-.29.87-.58,1.16-.58.87-.87,1.45v.58s-.64,1.07-.64,1.07l-.23-1.36-.87-1.45-.02-.05-.85-1.98.87,3.18.29.87.29,1.16.06.39-.63,1.06-.29,1.16-.66,1.58-.5-1-.29-1.45v-2.32s0-1.96,0-1.96l-.58,2.25v1.74s.29,1.16.29,1.16v1.45s.56,1.39.56,1.39l-.27.64-.87,1.45-.87,1.74.58-2.89-.29-2.32-.29-2.18v-2.89s0-2.74,0-2.74l-.58,3.18v1.41s0,1.48,0,1.48v.87s.29,1.74.29,1.74v1.45s0,1.74,0,1.74l-.29,1.16.29,2.03-.58-.29-1.16-1.16-1.16-2.03-.58-2.31-.87-2.32-.29-1.45-.58-1.45v2.03s.58,1.45.58,1.45l.58,2.03.29,1.74.58,1.45.29.87,1.16,1.16,1.45,1.16.29.87v1.16s0,1.16,0,1.16v3.76s0,1.45,0,1.45l.29,2.6.58.58.87-.29h.87s.58-.87.58-.87l1.16-.87,1.16-.87,1.16-.87,1.45-.58.87-.29.87,1.16,1.74,2.89,1.45,2.03,1.16,1.74v1.16s0,.87,0,.87l.29-1.16v-1.16s0-.87,0-.87l-1.16-1.45-1.16-1.74-.87-1.74-.58-.87-.87-.58-.29-.58,1.45-.29,1.45.29h1.16s2.03.58,2.03.58l1.45.29h.58s.87-.29.87-.29l1.16-.87.19-.39.1.96v.87s.29.58.29.58l.29,1.45v2.6s.58,1.45.58,1.45l.29.87.58,4.34v1.45s0,1.45,0,1.45v3.76s0,.58,0,.58l-1.45-1.45-1.16-2.03-1.16-1.45h-.87s-.58-1.16-.58-1.16l-.87-.58-1.16-.87-1.16-1.16-.58-.29-.58-.87v-1.16s-.29-.87-.29-.87l-.29,1.16v1.16s.29.58.29.58l1.45,1.16,2.03,1.74,1.13,1.49,1.18,1.7,1.74,2.03,1.45,2.31.58,1.74v1.74s0,1.74,0,1.74v1.16s0,4.92,0,4.92v1.45s-.29.58-.29.58h-1.74s-.87-.58-.87-.58h-1.16s-.22.04-.22.04l-.36-1.2v-1.74s0-2.6,0-2.6v-1.45s-.58-1.45-.58-1.45l-.87-2.31-.87-3.76-.58-.29v.87s.58,1.74.58,1.74v1.74s.58,1.16.58,1.16l.58,1.16.29.87.29.87v1.45s0,1.16,0,1.16v1.45s0,1.16,0,1.16l.27,1.34-.56.11-.29.58-.87.29-2.9.58h-2.32s-1.74-.29-1.74-.29l-1.74-.58-1.45-1.45-2.03-1.45-3.76-2.03-2.61-.87-2.03-1.74,1.45,2.03,1.74.58,2.03,1.16,1.45.58,1.74,1.45.87.58v.29l-2.61.29-2.9-.29-2.02-.76-.3-.11-2.03-1.45-2.03-.58Zm15.58-40.67l-1.97-1.58-.58-.58-1.74-2.03-.04-.08.62-1.36.81-1.88.06.43.29,1.45.58,1.16.58,1.45.87,1.45.53,1.58Zm5.55,8.26l-.29.29h-.87s-1.45,0-1.45,0h-.58s-1.74.29-1.74.29l.26-1.31.03-.14.58-2.31v-1.45s-.58,1.74-.58,1.74v.87s-1.16,2.6-1.16,2.6v.58s-.87.58-.87.58l-.58.29-.87.87-.87.58-.87.58-.58.58-.58.29h-.58s-.58-.87-.58-.87l-.29-2.89v-3.47s.29-.58.29-.58l-.29-2.6.29-1.74,1.16-2.6.29-.87.41-.91,1.03.62,1.16,1.16.87.87,1.74,1.74,1.45,1.16.87.58.29.87.29,1.45v.87s.87.58.87.58l1.16.58.58,1.16Zm13.61-23.73l.87-1.16.58-.87.29-2.31.29-1.74v-.87s.29-.87.29-.87l.16-.26.13.26.29.87v2.03s0,.58,0,.58l.29.58.58.87.29.87.29.58v.29s-1.74,1.74-1.74,1.74l-.87.87-.87,1.45-.29-1.45-.58-1.45Zm-3.47-16.49l.45-.99,1.57,1.57.29.58.29.58v.58s0,.87,0,.87l-.29.87v.87s.58.29.58.29v.58l-.29.29-.29.58v.87s-.29.58-.29.58l-.29,1.16-.29.87v.87s-.29-.29-.29-.29l-.58-.58-.58-1.45-.87-.87-.29-.87-.29-.87v-1.16s0-1.74,0-1.74l.58-1.74.87-1.45Zm6.74,5.78l-.37.88-.41.74-.45-.45-.58-1.16-.58-.58.58,1.16v.29s0,.87,0,.87l.7.47-.7,1.27v.87s0,.58,0,.58v1.16s-.29,1.45-.29,1.45l-.29.87-.58.87-.58.58-.58-2.89-.87-.87.29-.58v-1.45s.29-.87.29-.87l.29-1.45.87-.87v-.87s0-.87,0-.87l-.58-.87v-1.45s.29-1.16.29-1.16l-.58-.87-.58-.58-1.16-1.45-.05-.36.07-.16.84.53.58.58.87,1.16.87.87.29.29.87,1.16.87.87.29.87.29.87.08.57Zm1.66-2.59v-.58s.45-.81.45-.81l.13.52.29,1.16v.58s.29,1.16.29,1.16l.29,1.16.58,1.45.29,1.16.58,1.16v.58s.32,1.05.32,1.05l-.03.11-.29,1.45v.51l-1.45.36-.87.29-.58.87-.29-1.45-.58-.58-.58-1.16-.29-1.16v-1.16s0-1.74,0-1.74l-.31-.31.89-1.42.58-1.45.58-1.74Zm2.61-14.47l-.29.87-.23.91-.93-1.49-.29-1.74-.05-.23-.24-1.22v-.11l1.16.11.58.29.61.4.26,1.05-.58,1.16Zm1.45,16.49l-.29.87v.58s-.58.58-.58.58v.87s.22,2.02.22,2.02l-.51-1.44-.58-.87-.29-.87-.29-1.45v-1.74s-.87-1.45-.87-1.45v-1.27s.58-1.04.58-1.04l.58-1.74-.29-2.31v-1.74s.52-1.96.52-1.96l.06.22v.87s0,.87,0,.87l.29,1.45.58,1.45v.58s0,1.16,0,1.16l.29.58.29.29.29,1.45v1.45s0,1.16,0,1.16v1.45Zm5.32-2.79l-.24.53-.74.53-.58.29h-.87s-.87,0-.87,0h-.87s1.16-.87,1.16-.87l.29-.87h1.45s1.27.39,1.27.39Zm-5.33,9.47v-.02s.01-1.45.01-1.45l-.29-1.45v-1.16s.58-1.45.58-1.45l.29-.87.29-.87.87-.29.87.29h.87s1.01-.29,1.01-.29l.44-.58.7-.82.28-.35,1.13.35.6.41-.12.41-.29.58-.29,1.16-.58.87-.58,1.16-.58,1.16v.87s-.58.87-.58.87l-.29.87-.87.58-.58.58-.58.29-.87.58-1.16.58v-1.16s-.3-.84-.3-.84Zm-.68,1.81l.04-.27.07-.41.07-.14.22.72-.4.1Zm-7.12,14.95l.29-3.47-.58-.87-.58-1.45v-1.16s.29-.87.29-.87l.58-.87,1.16-1.74,1.16-1.16.87-.87,1.16-.58.58-.58.87-.29.62-.09-.04.09-.58,1.16-.29.87-.58.58v1.16s-.29.87-.29.87v1.16s-.29.87-.29.87l-.29,1.45-.29,1.16-.29.58-.58,1.16-.87,1.16-.58.87-.87.87h-.58Zm10.71,14.18l.87-1.16,1.16-.87.58-1.16.58-1.16.58-.87.58-.29.58-.87.58-.87.58-.58.58-1.16.79-1.05,1.82.76h.87s.58.29.58.29l.81.46-.23.69-.58.58-.29.58-.87.58-.87.58-.58.58-.87.87-1.16,1.16-.29.29-.58.58-.58.29-.87.29-.58.29-.87.58-1.16.29-.87.29h-.29Zm-12.16,2.03l.29-2.89.58-4.05v-1.16s.58-.29.58-.29l.29-.29.87-1.16.87-.87.87-1.16.87-.29.29-.29h1.45s.58.29.58.29l.58.58,1.16-.29,1.16-.29,1.16-.29h.87s.87-.29.87-.29h.87s.87,0,.87,0h1.45s1.16,0,1.16,0h.29s1.11.46,1.11.46l-.24.12-.87,1.45-.87,1.16-.29.87-.58.58-.58.58-.58.87-.58.58-.29.87-.29.29-.87.58-.87,1.16-.29.58-.58.29-.87.29-.58.29-.87.29h-.87s-.87.29-.87.29h-.87s-.58.29-.58.29l-.58.29h-.29l.29-.58.29-1.45.29-1.16.29-1.45-.11-.54-.11-.55-.07-.36v-1.46s0-.57,0-.57l.09-.54.2-1.19v-.87s0-.87,0-.87l-.29.87v.87s-.29,2.89-.29,2.89v.87s.29,1.74.29,1.74l-.29.29v.29s0,.87,0,.87l-.29.29v1.16s-.29.58-.29.58l-.29.58-.29.29-1.16.29-.87.29-.87.29-1.45-.29Zm-1.77,46.13l.98-1.92,2.93,1.95v1.95s0,2.42,0,2.42l-1.95,2.45-1.95,1.95v-3.9s0-4.91,0-4.91Zm-2.28-39.18l-.29-3.18-.58-1.45-.29-3.18-.58-2.03-.13-1.38.13-.06,1.45-.29,1.45.29h1.16s.29-.29.29-.29h.29v1.45s-.29,1.45-.29,1.45v.87s-.29,1.45-.29,1.45l-.29,1.16-.87,5.21-.29,2.6v2.03s-.58-2.03-.58-2.03l-.29-2.6Zm-4.34,25.47l-.23-.75.23-.11,1.16.05.87.24,1.45.58.29,2.6-.29,2.03.08,1.51-.08,1.09v.29s-.58-1.16-.58-1.16l-.58-1.74-.87-1.45-.87-1.45-.58-1.74Z"/>
          <polygon class="cls-3" points="712.58 62.33 712.39 61.75 712.58 62.04 712.58 62.33"/>
        </g>
        <path class="cls-2" d="m592.25,73.13s.42,2.67-.35,5.59c-.45,1.69-1.19,3.07-1.05,3.14.19.1,1.32-2.25,1.75-2.1.37.13.32,2.18-.7,3.84-.78,1.27-1.87,1.91-1.75,2.1.17.25,2.23-1,2.45-.7.28.38-2.66,2.87-2.45,3.14.15.19,1.67-.81,1.75-.7.09.13-1.89,1.51-1.75,1.75.12.2,1.61-.57,1.75-.35.17.27-1.96,1.7-1.75,2.1.16.3,1.54-.33,1.75,0,.35.55-3.02,3.19-2.8,3.49.16.21,1.99-.87,2.1-.7.12.19-2.31,1.49-2.1,2.79.06.36.26.35.35.7.38,1.46-2.76,3.12-2.45,3.84.25.57,2.38.07,2.45.35.07.3-2.52.98-2.45,1.4.05.3,1.51.34,1.75.35.82.02,1.38-.09,1.4,0,.03.14-1.43.56-1.4.7.04.16,1.99-.3,2.1,0,.1.28-1.49,1.02-3.84,2.79-.25.19-1.15.87-1.05,1.05.15.26,2.24-.96,2.8-.35.23.26.13.76,0,1.05-.43.95-1.78,1.03-1.75,1.4.03.3.92.26,1.05.7.14.48-.72,1.15-1.05,1.4-1.14.88-1.94.82-2.1,1.4-.15.57.53.93.35,1.4-.27.7-2.08.46-2.1.7-.02.22,1.47.8,3.14.7.38-.02,1.03-.09,1.05,0,.02.09-.57.18-1.05.7-.13.14-.45.49-.35.7.16.34,1.18-.17,1.75.35.37.34.35.93.35,1.05-.01.38-.15.51-.35,1.05-.33.9-.12,1.03-.35,1.4-.54.88-2,.55-2.1,1.05-.11.52,1.39,1.39,1.4,1.4.05.15.11.43,0,.7-.27.65-1.27.69-1.4.7-.44.02-.77-.11-1.4-.35-.33-.13-.61-.23-.96-.44-.27-.16-.41-.28-.44-.25-.11.1,1.38,1.49,1.05,2.1-.06.12-.16.14-1.05.35-1.5.36-1.56.37-1.75.35-.74-.09-1.04-.54-1.4-.35-.22.12-.38.42-.35.7.09.81,1.73.74,2.1,1.75.15.41-.02.86-.35,1.75-.35.93-.54,1.45-1.05,1.75-.84.49-1.6-.19-2.1.35-.27.29-.27.74-.79,1.21-.1.09-.17.14-.26.18-.48.23-1.05,0-1.05,0,0,.02,1.61.14,2.1,1.05.19.36.22.86,0,1.05-.2.17-.45-.07-1.05,0-.37.04-.36.14-1.05.35-.75.23-.95.18-1.05.35-.19.33.29.99.7,1.4,1.16,1.15,2.81,1.35,2.8,1.4-.01.06-2.53-.94-3.49,0-.5.49-.12,1.05-.7,1.75-.43.51-.86.47-2.45,1.05-1.39.5-2.09.75-2.1,1.05-.03.66,3.88,1.07,3.84,1.4-.02.22-1.84.02-2.1.7-.14.36.31.59.35,1.4,0,.11.03.78-.35,1.4-.45.73-1.04.71-1.05,1.05,0,.58,1.73,1.09,2.8,1.4.73.21.72.16,1.4.35,1.32.37,1.86.71,3.49,1.4,1.43.6,2.14.9,2.8,1.05,1.06.24,2.12.49,3.49.35.86-.09,1.58-.29,1.75,0,.15.26-.32.6-.35,1.4-.01.38.08.96.35,1.05.25.08.4-.34,1.05-.7.23-.13.77-.43,1.4-.35.58.07.68.41,1.05.35.59-.1.62-1.01,1.05-1.05.54-.05.68,1.36,1.75,1.75.33.12.69.08,1.4,0,1.11-.12,1.09-.37,1.75-.35.71.02,1.33.33,2.1.7.51.25.46.28.7.35.81.23,1.59-.12,2.1-.35.92-.42.97-.74,1.4-.7.57.06.6.66,1.4,1.05.63.31,1.49.36,1.75,0,.24-.33-.21-.81,0-1.05.41-.48,2.76.77,2.8.7.01-.02-.31-.12-.35-.35-.06-.3.37-.75.7-.7.35.05.32.61.7.7.4.09.87-.44,1.05-.7.1-.14.18-.33.35-.7.2-.45.21-.55.35-.7.24-.25.56-.32.7-.35.51-.11.66.12,1.05,0,.32-.1.69-.39.7-.7.02-.55-1.11-.87-1.05-1.05.06-.16,1.11-.15,2.1.35.52.26.75.52,1.4.7.28.08.87.23,1.05,0,.16-.22-.2-.54-.35-1.4-.06-.33-.11-.67,0-1.05.14-.48.41-.55.7-1.05.14-.24.51-.88.35-1.4,0,0-.16-.54-2.8-1.4.08.69-.65-1.83,0-2.1.26-.11.67.8,1.05.7.3-.08.46-.79.35-1.4-.11-.61-.41-.58-1.05-1.75-.38-.69-.31-.76-.7-1.4-.23-.38-.42-.61-.35-.7.09-.11.49.16,1.05.35.93.3,2.01.27,2.1,0,.06-.19-.38-.35-1.05-1.05-.48-.51-.4-.57-1.05-1.4-.78-.99-1.04-1.06-1.4-1.75-.31-.6-.51-1.3-.35-1.4.2-.12.85.82,1.05.7.16-.09,0-.79-.35-1.4-.31-.55-.64-.81-1.75-1.75-1.24-1.05-1.46-1.26-1.4-1.4.11-.24.94.25,2.1,0,0,0,.5-.11,2.45-1.4.57.71.7.7.7.7.34-.03.77-1.21.35-1.75-.32-.41-.82-.06-1.75-.35-1.01-.31-.95-.88-2.45-1.75-.26-.15-.64-.33-1.4-.7-1.25-.6-1.77-.79-1.75-1.05.02-.27.67-.67,1-.68.01,0,.04,0,.05-.02.07-.1-.64-.58-1.4-1.4-.57-.62-.61-.83-1.05-1.05-.38-.19-.66-.19-.7-.35-.07-.34,1.12-.74,1.05-1.05-.04-.18-.46-.11-1.05-.35-.12-.05-1.24-.51-1.4-1.4-.08-.44.08-.97.35-1.05.29-.08.59.42.7.35.13-.09-.05-1-.7-1.4-.6-.37-1.15,0-1.4-.35-.3-.42.28-1.3.35-1.4.05-.08.28-.41.7-.7.29-.2.39-.18.7-.35.13-.07,1.12-.6,1.05-1.05-.03-.19-.37-.36-1.05-.7-.51-.25-.54-.22-.7-.35-.39-.32-.28-.55-.7-1.05-.32-.38-.45-.32-.7-.7-.13-.2-.07-.17-.35-.7-.19-.37-.3-.55-.45-.74-.18-.21-.24-.22-.25-.31-.03-.38,1.07-.97,1.4-.7.21.17.12.67,0,.7-.17.04-.23-.94-1.05-1.75-.4-.39-.73-.5-.7-.7.06-.38,1.38-.39,1.4-.7,0-.17-.37-.3-.35-.35.04-.09,1.34.46,1.4.35.04-.08-.61-.4-1.4-1.05-.33-.27-.87-.71-1.4-1.4-.71-.92-.73-1.42-1.4-1.75-.38-.18-.64-.16-.7-.35-.15-.46,1.17-1.16,1.05-1.4-.07-.15-.57.09-1.4,0-.46-.05-.81-.09-1.05-.35-.39-.44,0-.99-.35-1.4-.41-.46-1.38-.2-1.4-.35-.02-.14.94-.24,1.05-.7.06-.26-.17-.55-.35-.7-.64-.52-1.65-.09-1.75-.35-.09-.22.69-.51.7-1.05,0-.37-.34-.47-.7-1.05-.46-.74-.55-1.64-.35-1.75.23-.12.83.82,1.05.7.25-.14-.39-1.45,0-1.75.22-.17.61.12.7,0,.19-.25-1.62-1.42-1.4-2.44.1-.49.57-.47.7-1.05.18-.82-.58-1.62-.7-1.75-.76-.8-1.77-.94-1.75-1.05.04-.16,2,.28,2.1,0,.09-.26-1.59-.7-1.75-1.75-.05-.35.13-.37.35-1.4.17-.76.32-1.51,0-1.75-.21-.16-.45.04-.7,0-1.25-.19-1.37-6.29-1.4-6.29Z"/>
      </g>
    </g>
  </g>
</svg>