<?xml version="1.0" encoding="UTF-8"?>
<svg id="Layer_2" data-name="Layer 2" xmlns="http://www.w3.org/2000/svg" viewBox="0 0 219.18 85.83">
  <defs>
    <style>
      .cls-1 {
        fill: teal;
      }

      .cls-1, .cls-2 {
        stroke: #000;
        stroke-miterlimit: 10;
      }

      .cls-2 {
        fill: #ff7f7f;
      }
    </style>
  </defs>
  <g id="Layer_3" data-name="Layer 3">
    <path class="cls-2" d="m202.33.61c-.89.31-1.53,1.36-2.81,3.44-1.11,1.82-1.15,2.56-2.2,3.5-.92.82-1.37.68-3.25,1.54-2.86,1.31-2.69,2.05-5.27,3.2-1.82.81-1.8.4-4.47,1.42-2.39.91-2.37,1.23-4.53,2.03-1.06.39-2.4.71-5.09,1.36-3.59.86-4.27.88-5.03.75-.39-.07-.35-.09-3.01-.91-2.61-.81-2.46-.72-3.01-.91-2.97-1.04-5.37-2.83-5.28-2.99.07-.13,1.83.62,1.78.79-.06.2-2.43-.84-5.52-.54-1.02.1-.77.21-3.8.87-2.03.44-3.05.66-4.41.81-1.8.2-1.63,0-4.35.19-2.46.18-2.58.35-3.74.25-1.53-.13-1.91-.47-3.07-.3-1.03.15-1.38.51-2.57.99-1.5.6-1.9.41-3.8.87-3.44.83-3.45,1.76-5.76,1.91-.26.02-1.4-.11-3.68-.36-3.57-.39-3.58-.46-4.29-.42-2.11.13-2.3.78-4.41.81-1.48.02-1.53-.29-3.07-.3-1.61,0-2.79.33-4.41.81-2.21.65-2.11.9-5.15,1.97-2.44.86-2.81.81-3.86,1.48-.63.41-1.08.81-1.25.97-.02.02-.03.03-.05.05-.89.84-1.36,1.65-1.45,1.81-.41.72-.89,1.5-.85,2.39.03.89.49,1.64,2.15,3.31,1.81,1.81,2.72,2.71,3.99,3.49,6.06,3.66,14.29.99,14.78.82.5-.17,2.43-.85,5.09-1.36,2.73-.53,3.68-.39,4.35-.19,1.54.44,1.43,1.12,3.5,2.2,2.01,1.05,2.41.58,4.79,1.71.85.4,2.14,1.1,3.5,2.2,1.29,1.04,1.21,1.28,2.83,2.75,1.97,1.78,2.26,1.58,3.44,2.81,1.3,1.35,1,1.65,2.71,3.98,1.77,2.41,2.14,2.16,3.32,4.04,1.16,1.84,1.71,3.52,2.03,4.53.59,1.84.81,3.33.87,3.8.35,2.68-.11,3.19.25,3.74,1.89,2.88,21.18-.56,25.91-11.71,1.28-3.02,1.38-6.32,4.58-8.84,2.03-1.6,3.45-1.43,7.11-3.02,3.64-1.58,4.05-2.55,8.57-5.36,6.54-4.07,10.1-6.28,14.89-6.6,5-.33,8.54,1.6,9.26.28.51-.94-1.26-1.94-2.59-5.21-1.36-3.34-.48-4.69-1.56-9.44-.23-1-.76-3.3-1.91-5.76-2.43-5.19-7.42-10.64-10.2-9.67Z"/>
  </g>
  <g id="Layer_2-2" data-name="Layer 2">
    <path class="cls-1" d="m4.48,22.79c.49-.75,1.32-1.8,2.75-2.83.92-1.25,1.39-2.45,1.59-3.56.2-1.13-.04-1.25.24-2.45.18-.75.69-1.67,1.71-3.5.21-.37.35-.61.55-.61.56-.01.51,1.74,1.6,2.63,1.1.9,2.09-.14,4.29.42,1.82.46,1.66,1.31,4.11,2.26,1.58.61,1.66.27,3.62.97,1.73.62,1.71.91,3.56,1.59.81.3,2.02.73,3.62.97,1.62.24,1.66,0,3.07.3,0,0,.51.11,3.01.91,1.71,1.64,3.14,2.12,4.11,2.26.64.09,2.52.25,2.45.24,2.51.96,4.32.83,5.52.54,1.81-.44,2.21-1.27,4.53-2.03,2.2-.73,2.35-.16,5.03-.75,3.69-.82,3.81-1.99,7.05-2.41,1.82-.23,1.9.12,4.35-.19,1.96-.25,4.41-.81,4.41-.81,2.84-.55,5.2-.62,6.87-.57,1.26.03,2.3.05,3.68.36,2.99.66,3.68,1.77,5.4,1.77,1.9,0,1.91-1.85,4.59-2.65,1.09-.32,1.58-.21,3.13-.31,2.72-.19,4.34-.75,6.31-1.24,4.93-1.22,8.89-2.2,13.12-1.2,3.6.86,7.73,3.23,7.73,3.23-.54.81-1.4,1.8-2.69,2.21-1.72.55-2.42-.5-4.91-.48-2.15.02-2.53.81-5.7,1.3-.67.1-.6.06-3.74.25-3.66.23-5.52.35-6.87.57-2.01.33-3.37.55-5.09,1.36-1.83.86-3.05,1.91-3.98,2.71-1.21,1.04-1.82,1.56-2.08,2.27-.77,2.09.84,4.35,1.36,5.09.46.65,1.55,1.99,3.44,2.81,1.74.76,3.19.66,5.52.54,2.9-.16,5.81-.19,8.71-.39,5.05-.34,7.57-.51,8.71-.39,4.45.48,7.7,2.17,10.19,3.47,4.28,2.23,7.08,4.77,8.11,5.75,2.49,2.37,4.07,4.73,7.14,9.37,3.65,5.53,5.48,8.29,5.85,9.86,1.46,6.17-1.6,13.18-6.03,17.37-6.05,5.73-14.03,5.6-19.73,5.5-4.73-.08-8.82-1.22-17-3.52-6.97-1.95-12.78-4.16-15.59-5.24-8.12-3.11-7.83-3.6-12.52-4.94-2.24-.64-7.13-1.9-10.8-3.53-2.05-.91-3.56-1.59-3.56-1.59-2.89-1.29-2.96-1.34-3.56-1.59-3.16-1.29-3.29-.82-5.4-1.77-1.14-.51-3.33-1.5-5.22-3.61-1.05-1.17-1.22-1.81-2.77-3.37-1.09-1.1-1.42-1.19-2.27-2.08-1.67-1.74-1.63-2.62-2.71-3.98-1.65-2.08-3.95-2.81-7.06-3.79-2.26-.71-1.91-.28-5.46-1.15-4.18-1.03-7.61-2.36-8.41-2.68-2.73-1.08-2.71-1.29-4.17-1.65-1.53-.38-2.2-.3-6.13-.6-2.63-.2-3.95-.3-4.91-.48-3.08-.59-4.92-.94-5.95-2.44-.56-.82-.6-2.43-.69-5.64-.05-1.95.08-2.54.3-3.07.49-1.19,1.07-1.26,2.14-2.89.91-1.39.75-1.74,1.53-2.95Z"/>
  </g>
</svg>