<?xml version="1.0" encoding="UTF-8"?>
<svg id="Layer_2" data-name="Layer 2" xmlns="http://www.w3.org/2000/svg" viewBox="0 0 294.13 294.13">
  <defs>
    <style>
      .cls-1 {
        stroke-width: 0px;
      }

      .cls-1, .cls-2 {
        fill: none;
      }

      .cls-3, .cls-4, .cls-5, .cls-6, .cls-2 {
        stroke: #000;
        stroke-miterlimit: 10;
      }

      .cls-4 {
        fill: #ff7f7f;
      }

      .cls-5 {
        fill: #fff;
      }

      .cls-6 {
        fill: #ffac35;
      }
    </style>
  </defs>
  <g id="Mittens">
    <g>
      <g>
        <g>
          <path class="cls-5" d="m169.75,67.84c-.05-.85-.11-1.7-.16-2.55-2.54,3.74-7.78,4.2-12.3,4.29-9.71.2-19.43.39-29.11-.31-20.29-1.48-40.97-6.88-60.66-1.76-3.14.82-6.22,1.9-9.41,2.51-4.15.8-8.41.78-12.64.77-12.06-.04-24.39-.13-35.75-4.19-1.6,13.89,3.74,28.37,6.78,42.02,2.55,11.47,2.36,23.34,2.16,35.09-.11,6.27-.23,12.63-1.97,18.65-1.33,4.59-3.58,8.89-4.69,13.55-1.01,4.25-1.02,8.66-1.04,13.02-.03,10.84-.06,21.69-.09,32.53,10.28,7.26,23.25,9.45,35.82,10.11,6.54.34,13.28.66,19.45-1.53,6.98-2.48,12.63-7.97,19.72-10.1,10.88-3.26,22.23,1.99,32.84,6.02,24.3,9.22,50.86,12.38,76.65,9.13.65-10.58,1.3-21.15,1.95-31.73.5-8.18-.24-17.25,3.26-24.66,2.29-4.83,5.64-9.28,6.58-14.54.69-3.86.02-7.81-.71-11.66-2.95-15.53-6.93-30.86-11.9-45.87-2.21-6.66-4.84-13.61-10.3-18.02-1.19-.96-2.57-1.88-3.06-3.34-.38-1.13-.14-2.37.13-3.53,1.89-8.29,4.83-16.35,8.73-23.91-8.47,4.2-11.07,7.87-20.28,10.02Z"/>
          <g>
            <path class="cls-5" d="m70.42,160.84c-1.61,1.46-3.26,2.98-4.19,4.95-.96,2.04-1.06,4.36-1.09,6.61-.06,3.59-.01,7.19.14,10.78.08,2,.23,4.09,1.33,5.76.98,1.5,2.6,2.45,4.18,3.32,7.37,4.05,15.09,7.45,23.05,10.15,8.91,3.02,18.53,5.17,27.69,3.02,1.55-.36,3.14-.89,4.21-2.08.97-1.08,1.36-2.56,2.03-3.85,1.75-3.4,5.3-5.42,7.96-8.18,13.62-14.15,1.26-43.35-16.07-48.65-18.68-5.72-36.55,6.68-49.21,18.17Z"/>
            <path class="cls-5" d="m84.4,121.8c-1.23,1.11-2.48,2.26-3.19,3.76-.73,1.55-.8,3.31-.83,5.03-.05,2.73-.01,5.46.1,8.19.06,1.52.18,3.11,1.01,4.38.75,1.14,1.98,1.86,3.17,2.52,5.6,3.08,11.47,5.66,17.52,7.72,6.77,2.3,14.09,3.93,21.05,2.3,1.18-.28,2.39-.68,3.2-1.58.74-.82,1.04-1.94,1.54-2.93,1.33-2.59,4.03-4.12,6.05-6.22,10.36-10.76.96-32.96-12.22-36.99-14.2-4.35-27.79,5.08-37.42,13.82Z"/>
            <path class="cls-5" d="m83.07,92.24c-.86.83-1.75,1.7-2.22,2.8-.49,1.14-.5,2.42-.49,3.66.03,1.98.12,3.96.27,5.94.08,1.1.2,2.25.83,3.15.57.81,1.48,1.3,2.36,1.75,4.13,2.1,8.44,3.83,12.88,5.18,4.96,1.51,10.3,2.52,15.31,1.17.85-.23,1.72-.55,2.28-1.22.52-.61.71-1.43,1.05-2.16.9-1.91,2.83-3.08,4.24-4.65,7.25-8.04-.08-23.9-9.72-26.52-10.39-2.82-20.01,4.33-26.79,10.89Z"/>
            <polyline class="cls-2" points="135.82 126.47 165.75 126.47 168.93 124.03 178.73 116.52"/>
            <polyline class="cls-2" points="89 133.07 47 121.07 43 108.07"/>
            <path class="cls-3" d="m92.61,95.41c-.36,1.47-.42,3.01-.16,4.5,1.42.71,3.28-1.12,2.58-2.55-1.2-.52-2.51-.79-3.82-.79"/>
            <path class="cls-3" d="m109.88,90.94c-.81-.36-1.75.47-1.85,1.36s.36,1.73.81,2.5c1.07.01,2.13.03,3.2.04,0-.89,0-1.77,0-2.66-1.12-.17-2.17-.8-2.84-1.72"/>
            <path class="cls-6" d="m125.07,100.97c-6.44-.99-15.03,2.98-21.6,3.46-5.15-8.82,18.1-4,21.6-3.46Z"/>
            <path class="cls-3" d="m92.82,105.67c.22,1.41,1.44,2.6,2.85,2.79,0-.9,0-1.8,0-2.7-.74-.35-1.69-.19-2.27.4-.9.92,5.81,5.89,6.98,6.44s2.76-.71,2.36-1.94-2.64-1.09-2.77.19"/>
            <path class="cls-3" d="m108.15,111.34c.56-.21,1.25.01,1.58.51-.14.96-1.1,1.72-2.07,1.64-.3-1.1-.13-2.33.47-3.31.03.73,5.15-1.36,5.18-.62.9,0,1.79,0,2.69,0,0-.53,0-1.06,0-1.59-.92-.03-6.93,3.39-7.85,3.37Z"/>
          </g>
        </g>
        <path class="cls-4" d="m282.34,170.3c-.88-.35-2.05.02-4.38.76-2.03.64-2.54,1.18-3.95,1.21-1.24.02-1.49-.38-3.46-.96-3.02-.88-3.37-.21-6.08-1.03-1.91-.58-1.63-.88-4.31-1.85-2.4-.87-2.6-.62-4.76-1.43-1.05-.4-2.28-1.03-4.74-2.3-3.28-1.7-3.8-2.14-4.29-2.73-.25-.31-.21-.3-1.68-2.66-1.45-2.32-1.39-2.16-1.68-2.66-1.56-2.74-2.2-5.65-2.03-5.72.14-.05.98,1.67.83,1.77-.17.11-1.29-2.23-3.82-4.02-.84-.59-.72-.35-3.44-1.83-1.83-1-2.74-1.5-3.86-2.28-1.49-1.03-1.23-1.08-3.42-2.7-1.98-1.47-2.18-1.43-2.99-2.26-1.07-1.1-1.13-1.6-2.12-2.23-.88-.56-1.38-.52-2.59-.94-1.53-.53-1.71-.94-3.44-1.83-3.14-1.62-3.76-.93-5.61-2.32-.21-.16-.99-1-2.55-2.68-2.44-2.63-2.4-2.69-2.97-3.13-1.69-1.28-2.24-.92-3.86-2.28-1.13-.95-.97-1.22-2.12-2.23-1.21-1.06-2.33-1.58-3.86-2.28-2.09-.95-2.19-.7-5.18-1.88-2.41-.95-2.65-1.23-3.89-1.41-.74-.11-1.34-.09-1.58-.09-.02,0-.05,0-.07,0-1.22.05-2.11.36-2.29.42-.78.27-1.66.56-2.21,1.25-.55.69-.71,1.56-.54,3.91.18,2.55.28,3.83.74,5.25,2.18,6.73,10.15,10.11,10.63,10.3.49.2,2.39.95,4.74,2.3,2.41,1.39,3.03,2.11,3.42,2.7.87,1.34.35,1.78,1.21,3.95.83,2.11,1.45,2.02,2.5,4.42.38.86.9,2.24,1.21,3.95.29,1.63.07,1.76.33,3.93.32,2.63.67,2.67.76,4.38.09,1.87-.33,1.9-.56,4.78-.24,2.98.2,3.04-.13,5.23-.33,2.15-1.01,3.78-1.43,4.76-.76,1.78-1.57,3.05-1.83,3.44-1.48,2.26-2.17,2.34-2.26,2.99-.46,3.41,16.37,13.44,27.26,8.11,2.95-1.44,5.18-3.87,9.25-3.69,2.58.12,3.55,1.18,7.35,2.37,3.79,1.19,4.73.73,9.99,1.57,7.61,1.21,11.75,1.87,15.57,4.76,4,3.03,5.41,6.81,6.81,6.28,1-.37.32-2.29,1.45-5.63,1.16-3.42,2.71-3.85,5.01-8.15.48-.9,1.59-2.99,2.32-5.61,1.56-5.51,1.36-12.9-1.38-13.99Z"/>
      </g>
      <rect class="cls-1" width="294.13" height="294.13"/>
    </g>
  </g>
</svg>