<?xml version="1.0" encoding="UTF-8"?>
<svg id="Layer_2" data-name="Layer 2" xmlns="http://www.w3.org/2000/svg" viewBox="0 0 218 218">
  <defs>
    <style>
      .cls-1, .cls-2, .cls-3 {
        stroke: #000;
      }

      .cls-1, .cls-2, .cls-3, .cls-4 {
        stroke-miterlimit: 10;
      }

      .cls-2 {
        fill: #fff;
      }

      .cls-3 {
        fill: #ffba4a;
      }

      .cls-5 {
        font-family: ProfilePro, 'Profile Pro';
        font-size: 19px;
      }

      .cls-4 {
        fill: none;
        stroke: #603813;
      }

      .cls-6 {
        letter-spacing: 0em;
      }
    </style>
  </defs>
  <g id="Mittens">
    <g>
      <rect class="cls-2" x=".5" y=".5" width="217" height="217"/>
      <g>
        <circle class="cls-2" cx="108.17" cy="154" r="44.5"/>
        <circle class="cls-2" cx="108.17" cy="94.5" r="36"/>
        <circle class="cls-2" cx="108.17" cy="46" r="26.5"/>
      </g>
      <polyline class="cls-2" points="26.51 19.75 13.81 19.75 13.81 72.5 26.51 72.5"/>
      <polyline class="cls-2" points="13.81 72.5 13.81 130.5 26.51 130.5"/>
      <polyline class="cls-2" points="13.81 130.5 13.81 198.5 26.51 198.5"/>
      <polyline class="cls-2" points="63.67 198.5 63.67 210.12 154.15 210.12 154.15 198.5"/>
      <polyline class="cls-2" points="81.67 19.5 81.67 6.5 134.67 6.5 134.67 19.5"/>
      <polygon class="cls-3" points="167.5 36.5 205.5 43.5 167.5 50.13 167.5 36.5"/>
      <ellipse class="cls-1" cx="173.5" cy="77.5" rx="6" ry="4"/>
      <text class="cls-5" transform="translate(186.15 82.6)"><tspan x="0" y="0">x </tspan><tspan class="cls-6" x="12.08" y="0">1</tspan><tspan x="17.57" y="0">1</tspan></text>
      <g>
        <polyline class="cls-4" points="156.51 101.5 170.5 117.5 186.16 101.5"/>
        <line class="cls-4" x1="170.5" y1="117.5" x2="170.5" y2="188.1"/>
      </g>
      <text class="cls-5" transform="translate(185.95 149.19)"><tspan x="0" y="0">x 2</tspan></text>
    </g>
  </g>
</svg>