<?xml version="1.0" encoding="UTF-8"?>
<svg id="Layer_2" data-name="Layer 2" xmlns="http://www.w3.org/2000/svg" viewBox="0 0 101 101">
  <defs>
    <style>
      .cls-1 {
        letter-spacing: 0em;
      }

      .cls-2, .cls-3, .cls-4 {
        stroke: #000;
      }

      .cls-2, .cls-3, .cls-4, .cls-5 {
        stroke-miterlimit: 10;
      }

      .cls-3 {
        fill: #fff;
      }

      .cls-4 {
        fill: #ffba4a;
      }

      .cls-6 {
        font-family: ProfilePro, 'Profile Pro';
        font-size: 8.76px;
      }

      .cls-5 {
        fill: none;
        stroke: #603813;
      }

      .cls-7 {
        letter-spacing: 0em;
      }
    </style>
  </defs>
  <g id="Mittens">
    <g>
      <rect class="cls-3" x=".5" y=".5" width="100" height="100"/>
      <g>
        <circle class="cls-3" cx="50.12" cy="71.24" r="20.51"/>
        <circle class="cls-3" cx="50.12" cy="43.82" r="16.59"/>
        <circle class="cls-3" cx="50.12" cy="21.47" r="12.21"/>
      </g>
      <polyline class="cls-3" points="12.49 9.37 6.63 9.37 6.63 33.68 12.49 33.68"/>
      <polyline class="cls-3" points="6.63 33.68 6.63 60.41 12.49 60.41"/>
      <polyline class="cls-3" points="6.63 60.41 6.63 91.74 12.49 91.74"/>
      <polyline class="cls-3" points="29.61 91.74 29.61 97.1 71.31 97.1 71.31 91.74"/>
      <polyline class="cls-3" points="37.9 9.26 37.9 3.26 62.33 3.26 62.33 9.26"/>
      <polygon class="cls-4" points="77.46 17.09 94.97 20.32 77.46 23.37 77.46 17.09"/>
      <ellipse class="cls-2" cx="80.22" cy="35.98" rx="2.76" ry="1.84"/>
      <text class="cls-6" transform="translate(86.05 38.33)"><tspan x="0" y="0">x </tspan><tspan class="cls-1" x="5.57" y="0">1</tspan><tspan class="cls-7" x="8.1" y="0">1</tspan></text>
      <g>
        <polyline class="cls-5" points="72.4 47.04 78.84 54.42 86.06 47.04"/>
        <line class="cls-5" x1="78.84" y1="54.42" x2="78.84" y2="86.95"/>
      </g>
      <text class="cls-6" transform="translate(85.96 69.02)"><tspan x="0" y="0">x 2</tspan></text>
    </g>
  </g>
</svg>