<?xml version="1.0" encoding="UTF-8"?>
<svg id="Layer_2" data-name="Layer 2" xmlns="http://www.w3.org/2000/svg" viewBox="0 0 180 180">
  <defs>
    <style>
      .cls-1, .cls-2, .cls-3 {
        stroke: #000;
      }

      .cls-1, .cls-2, .cls-3, .cls-4 {
        stroke-miterlimit: 10;
      }

      .cls-5 {
        font-family: ProfilePro, 'Profile Pro';
        font-size: 12.22px;
      }

      .cls-2 {
        fill: #fff;
      }

      .cls-3 {
        fill: #ffba4a;
      }

      .cls-4 {
        fill: none;
        stroke: #603813;
      }

      .cls-6 {
        letter-spacing: 0em;
      }
    </style>
  </defs>
  <g id="Mittens">
    <g>
      <rect class="cls-2" x=".5" y=".5" width="179" height="179"/>
      <g>
        <g>
          <circle class="cls-2" cx="87.86" cy="119.37" r="28.61"/>
          <circle class="cls-2" cx="87.86" cy="81.12" r="23.15"/>
          <circle class="cls-2" cx="87.86" cy="49.94" r="17.04"/>
        </g>
        <polyline class="cls-2" points="35.36 33.06 27.19 33.06 27.19 66.98 35.36 66.98"/>
        <polyline class="cls-2" points="27.19 66.98 27.19 104.27 35.36 104.27"/>
        <polyline class="cls-2" points="27.19 104.27 27.19 147.98 35.36 147.98"/>
        <polyline class="cls-2" points="59.25 147.98 59.25 155.46 117.42 155.46 117.42 147.98"/>
        <polyline class="cls-2" points="70.82 32.9 70.82 24.54 104.89 24.54 104.89 32.9"/>
        <polygon class="cls-3" points="126 43.83 150.43 48.33 126 52.59 126 43.83"/>
        <ellipse class="cls-1" cx="129.86" cy="70.19" rx="3.86" ry="2.57"/>
        <text class="cls-5" transform="translate(137.99 73.47)"><tspan x="0" y="0">x </tspan><tspan class="cls-6" x="7.77" y="0">1</tspan><tspan x="11.3" y="0">1</tspan></text>
        <g>
          <polyline class="cls-4" points="118.94 85.62 127.93 95.91 138 85.62"/>
          <line class="cls-4" x1="127.93" y1="95.91" x2="127.93" y2="141.3"/>
        </g>
        <text class="cls-5" transform="translate(137.86 116.28)"><tspan x="0" y="0">x 2</tspan></text>
      </g>
    </g>
  </g>
</svg>