<?xml version="1.0" encoding="UTF-8"?>
<svg xmlns="http://www.w3.org/2000/svg" viewBox="0 0 169.12 80.43">
  <defs>
    <style>
      .cls-1 {
        mix-blend-mode: difference;
      }

      .cls-2, .cls-3, .cls-4 {
        stroke-width: 0px;
      }

      .cls-5 {
        isolation: isolate;
      }

      .cls-3 {
        fill: #ff8080;
      }

      .cls-4 {
        fill: #007f7f;
      }
    </style>
  </defs>
  <g class="cls-5">
    <g id="Layer_2" data-name="Layer 2">
      <g id="Layer_1-2" data-name="Layer 1">
        <g>
          <g class="cls-1">
            <path class="cls-2" d="m0,28.22c1.27-.49,2.51-.9,3.72-1.24,1.21-.33,2.28-.59,3.22-.77.89-.17,1.83-.32,2.81-.44.98-.12,2.1-.18,3.38-.18l12.14,31.16c.17-5.41.3-11.05.39-16.91.08-5.86.2-11.44.34-16.75.82-.31,1.74-.62,2.75-.94,1.01-.32,2.06-.58,3.15-.79.94-.18,1.92-.31,2.93-.39,1.01-.07,1.89-.11,2.62-.11l13.69,31.23-.47-33.79c1.18-.47,2.19-.83,3.02-1.06.83-.24,1.7-.44,2.59-.61.94-.18,1.94-.34,2.99-.47,1.05-.13,2.26-.21,3.62-.23l-2.36,52.83c-.68.28-1.56.6-2.64.95-1.08.36-2.28.66-3.6.92s-2.62.42-3.9.5c-1.28.08-2.14.11-2.58.1l-12.4-27.96-1.46,30.65c-.41.18-1.17.46-2.29.85-1.12.39-2.34.71-3.66.97s-2.51.41-3.58.47c-1.06.06-1.96.09-2.7.08L0,28.22Z"/>
          </g>
          <g class="cls-1">
            <path class="cls-4" d="m72.24.58c1.3-.19,2.47-.34,3.53-.43,1.06-.1,1.99-.14,2.81-.14.86,0,1.84.05,2.92.14,1.08.1,2.24.24,3.49.43v19.08h12.74V.58c1.3-.19,2.46-.34,3.49-.43,1.03-.1,1.98-.14,2.84-.14s1.84.05,2.92.14c1.08.1,2.24.24,3.49.43v51.41c-2.54.43-4.66.65-6.34.65-1.78,0-3.91-.22-6.41-.65v-21.02h-12.74v21.02c-2.54.43-4.66.65-6.34.65-1.78,0-3.91-.22-6.41-.65V.58Z"/>
          </g>
          <g class="cls-1">
            <path class="cls-3" d="m130.84,56.35c-3.39-2.01-5.97-4.31-7.75-6.9-1.78-2.59-2.86-5.38-3.24-8.37-.38-2.99-.12-6.1.77-9.34.89-3.24,2.31-6.51,4.27-9.81s4.16-6.14,6.6-8.52c2.44-2.38,5.07-4.12,7.88-5.25,2.81-1.12,5.8-1.54,8.95-1.26,3.15.28,6.42,1.42,9.81,3.43s5.95,4.32,7.69,6.94c1.74,2.62,2.79,5.43,3.16,8.44.36,3.01.09,6.15-.82,9.43-.91,3.28-2.35,6.57-4.31,9.88s-4.15,6.12-6.56,8.46c-2.42,2.33-5.03,4.05-7.83,5.15-2.8,1.1-5.76,1.5-8.87,1.19-3.11-.31-6.36-1.47-9.74-3.47Zm5.62-9.48c5.28,3.13,10.57.24,15.86-8.68s5.38-15.06.14-18.16-10.72-.27-16.06,8.73c-2.67,4.5-4.01,8.24-4.02,11.22,0,2.98,1.35,5.28,4.07,6.89Zm11.88,25.29c-.97,1.54-2.03,3.01-3.19,4.39-1.15,1.38-2.45,2.68-3.89,3.89l-18.59-15.79,1.05-1.76c.21-.35.42-.66.63-.92,1.41-1.9,3.23-3.66,5.48-5.29l18.52,15.5Z"/>
          </g>
        </g>
      </g>
    </g>
  </g>
</svg>